<svg width="62" height="64" viewBox="0 0 62 64" fill="none" xmlns="http://www.w3.org/2000/svg">
<g clip-path="url(#clip0_2632_41762)">
<path d="M61.8969 0H0.944519V64H61.8969V0Z" fill="white"/>
<path d="M4.97687 14.4267H23.5606L23.6775 12.9425L23.1515 11.8739H24.9047V11.5176C24.9047 11.5176 24.4957 10.8646 25.0216 10.2709V9.97404H25.2554L25.7813 7.89612L26.3657 9.97404H26.541V10.2115C26.541 10.2115 26.9501 10.6865 26.7164 11.4583H27.7683V11.1614L29.0539 11.0427V10.6271L31.0409 10.3303L33.0278 10.8052L33.0863 10.9833L34.255 11.2208L34.3135 11.577H35.3654C35.3654 11.577 35.0732 10.9239 35.6576 10.3896V10.2709H35.4238V10.0928H35.6576L36.1835 8.01486L36.7679 10.0928H36.9433V10.3303C36.9433 10.3303 37.0601 10.5677 37.1186 10.6271C37.1186 10.6865 37.3523 10.9833 37.177 11.4583C37.177 11.4583 37.1186 11.6957 37.2355 11.7551C37.2939 11.8145 37.4108 11.9332 37.4108 11.9332L37.5277 11.9926H38.9302L38.3458 12.9425V14.6642H55.8777H57.8646V36.8089H4.97687V14.4267Z" fill="white" stroke="#5C5B5F" stroke-width="0.048589" stroke-miterlimit="10"/>
<path d="M15.0869 20.1262H10.7039V20.5417H15.0869V20.1262Z" fill="#D8DADE"/>
<path d="M15.0869 20.6605H10.7039V21.076H15.0869V20.6605Z" fill="#D8DADE"/>
<path d="M15.0869 21.2542H10.7039V21.6697H15.0869V21.2542Z" fill="#D8DADE"/>
<path d="M15.0869 21.8478H10.7039V22.2634H15.0869V21.8478Z" fill="#D8DADE"/>
<path d="M15.0869 24.757H10.7039V25.1725H15.0869V24.757Z" fill="#D8DADE"/>
<path d="M15.0869 25.2913H10.7039V25.7068H15.0869V25.2913Z" fill="#D8DADE"/>
<path d="M15.0869 22.3822H10.7039V22.7978H15.0869V22.3822Z" fill="#D8DADE"/>
<path d="M15.0869 22.9165H10.7039V23.3321H15.0869V22.9165Z" fill="#D8DADE"/>
<path d="M15.0869 23.4508H10.7039V23.8664H15.0869V23.4508Z" fill="#D8DADE"/>
<path d="M15.0869 24.1039H10.7039V24.5195H15.0869V24.1039Z" fill="#D8DADE"/>
<path d="M22.158 20.1262H17.7751V20.5417H22.158V20.1262Z" fill="#D8DADE"/>
<path d="M22.158 20.6605H17.7751V21.076H22.158V20.6605Z" fill="#D8DADE"/>
<path d="M22.158 21.2542H17.7751V21.6697H22.158V21.2542Z" fill="#D8DADE"/>
<path d="M22.158 21.8478H17.7751V22.2634H22.158V21.8478Z" fill="#D8DADE"/>
<path d="M22.158 24.757H17.7751V25.1725H22.158V24.757Z" fill="#D8DADE"/>
<path d="M22.158 25.2913H17.7751V25.7068H22.158V25.2913Z" fill="#D8DADE"/>
<path d="M22.158 22.3822H17.7751V22.7978H22.158V22.3822Z" fill="#D8DADE"/>
<path d="M22.158 22.9165H17.7751V23.3321H22.158V22.9165Z" fill="#D8DADE"/>
<path d="M22.158 23.4508H17.7751V23.8664H22.158V23.4508Z" fill="#D8DADE"/>
<path d="M22.158 24.1039H17.7751V24.5195H22.158V24.1039Z" fill="#D8DADE"/>
<path d="M25.1969 13.0018H23.6775V13.4174H25.1969V13.0018Z" fill="#D8DADE"/>
<path d="M25.1969 13.5955H23.6775V14.0111H25.1969V13.5955Z" fill="#D8DADE"/>
<path d="M25.1969 14.1298H23.6775V14.5454H25.1969V14.1298Z" fill="#D8DADE"/>
<path d="M25.1969 14.7235H23.6775V15.1391H25.1969V14.7235Z" fill="#D8DADE"/>
<path d="M25.1969 17.6326H23.6775V18.0482H25.1969V17.6326Z" fill="#D8DADE"/>
<path d="M25.1969 18.1669H23.6775V18.5825H25.1969V18.1669Z" fill="#D8DADE"/>
<path d="M25.1969 15.2579H23.6775V15.6735H25.1969V15.2579Z" fill="#D8DADE"/>
<path d="M25.1969 15.7922H23.6775V16.2078H25.1969V15.7922Z" fill="#D8DADE"/>
<path d="M25.1969 16.3265H23.6775V16.7421H25.1969V16.3265Z" fill="#D8DADE"/>
<path d="M25.1969 17.0389H23.6775V17.4545H25.1969V17.0389Z" fill="#D8DADE"/>
<path d="M38.2874 13.0018H36.7679V13.4174H38.2874V13.0018Z" fill="#D8DADE"/>
<path d="M38.2874 13.5955H36.7679V14.0111H38.2874V13.5955Z" fill="#D8DADE"/>
<path d="M38.2874 14.1298H36.7679V14.5454H38.2874V14.1298Z" fill="#D8DADE"/>
<path d="M38.2874 14.7235H36.7679V15.1391H38.2874V14.7235Z" fill="#D8DADE"/>
<path d="M38.2874 17.6326H36.7679V18.0482H38.2874V17.6326Z" fill="#D8DADE"/>
<path d="M38.2874 18.1669H36.7679V18.5825H38.2874V18.1669Z" fill="#D8DADE"/>
<path d="M38.2874 15.2579H36.7679V15.6735H38.2874V15.2579Z" fill="#D8DADE"/>
<path d="M38.2874 15.7922H36.7679V16.2078H38.2874V15.7922Z" fill="#D8DADE"/>
<path d="M38.2874 16.3265H36.7679V16.7421H38.2874V16.3265Z" fill="#D8DADE"/>
<path d="M38.2874 17.0389H36.7679V17.4545H38.2874V17.0389Z" fill="#D8DADE"/>
<path d="M44.3067 20.1262H39.9237V20.5417H44.3067V20.1262Z" fill="#D8DADE"/>
<path d="M44.3067 20.6605H39.9237V21.076H44.3067V20.6605Z" fill="#D8DADE"/>
<path d="M44.3067 21.2542H39.9237V21.6697H44.3067V21.2542Z" fill="#D8DADE"/>
<path d="M44.3067 21.8478H39.9237V22.2634H44.3067V21.8478Z" fill="#D8DADE"/>
<path d="M44.3067 24.757H39.9237V25.1725H44.3067V24.757Z" fill="#D8DADE"/>
<path d="M44.3067 25.2913H39.9237V25.7068H44.3067V25.2913Z" fill="#D8DADE"/>
<path d="M44.3067 22.3822H39.9237V22.7978H44.3067V22.3822Z" fill="#D8DADE"/>
<path d="M44.3067 22.9165H39.9237V23.3321H44.3067V22.9165Z" fill="#D8DADE"/>
<path d="M44.3067 23.4508H39.9237V23.8664H44.3067V23.4508Z" fill="#D8DADE"/>
<path d="M44.3067 24.1039H39.9237V24.5195H44.3067V24.1039Z" fill="#D8DADE"/>
<path d="M51.3194 20.1262H46.9364V20.5417H51.3194V20.1262Z" fill="#D8DADE"/>
<path d="M51.3194 20.6605H46.9364V21.076H51.3194V20.6605Z" fill="#D8DADE"/>
<path d="M51.3194 21.2542H46.9364V21.6697H51.3194V21.2542Z" fill="#D8DADE"/>
<path d="M51.3194 21.8478H46.9364V22.2634H51.3194V21.8478Z" fill="#D8DADE"/>
<path d="M51.3194 24.757H46.9364V25.1725H51.3194V24.757Z" fill="#D8DADE"/>
<path d="M51.3194 25.2913H46.9364V25.7068H51.3194V25.2913Z" fill="#D8DADE"/>
<path d="M51.3194 22.3822H46.9364V22.7978H51.3194V22.3822Z" fill="#D8DADE"/>
<path d="M51.3194 22.9165H46.9364V23.3321H51.3194V22.9165Z" fill="#D8DADE"/>
<path d="M51.3194 23.4508H46.9364V23.8664H51.3194V23.4508Z" fill="#D8DADE"/>
<path d="M51.3194 24.1039H46.9364V24.5195H51.3194V24.1039Z" fill="#D8DADE"/>
<path d="M26.541 9.974H25.0216V10.2708H26.541V9.974Z" fill="black"/>
<path d="M37.0017 9.974H35.4823V10.2708H37.0017V9.974Z" fill="black"/>
<path d="M25.2554 10.0928L25.7813 7.89612L26.3657 10.0334L25.2554 10.0928Z" fill="black"/>
<path d="M35.6576 10.0928L36.1835 7.89612L36.7679 10.0334L35.6576 10.0928Z" fill="black"/>
<path d="M34.2551 11.1614L32.9694 10.9833V10.6865L30.9825 10.2709L28.9955 10.6271V10.9833L27.7098 11.1614V11.577H34.2551V11.1614Z" fill="#89878C"/>
<path d="M34.7226 13.6549H27.2423V15.7328H34.7226V13.6549Z" fill="#EDEEF0" stroke="#5C5B5F" stroke-width="0.048589" stroke-miterlimit="10"/>
<path d="M23.0931 14.4267H5.03528V14.8423H23.0931V14.4267Z" fill="#EDEEF0" stroke="#5C5B5F" stroke-width="0.04868" stroke-miterlimit="10"/>
<path d="M57.8646 14.6642H38.8718V15.1391H57.8646V14.6642Z" fill="#EDEEF0" stroke="#5C5B5F" stroke-width="0.048589" stroke-miterlimit="10"/>
<path d="M23.0931 15.9109H4.97687V16.6827H23.0931V15.9109Z" fill="#EDEEF0" stroke="#5C5B5F" stroke-width="0.048816" stroke-miterlimit="10"/>
<path d="M57.8646 16.1484H38.8718V16.9202H57.8646V16.1484Z" fill="#EDEEF0" stroke="#5C5B5F" stroke-width="0.048589" stroke-miterlimit="10"/>
<path d="M21.3399 21.0167H19.0023V24.6976H21.3399V21.0167Z" fill="url(#paint0_linear_2632_41762)" stroke="#5C5B5F" stroke-width="0.057495" stroke-miterlimit="10"/>
<path d="M19.762 21.0761V24.757" stroke="#89878C" stroke-width="0.115" stroke-miterlimit="10"/>
<path d="M20.6386 21.0761V24.757" stroke="#89878C" stroke-width="0.115" stroke-miterlimit="10"/>
<path d="M19.0023 21.9667H21.3399" stroke="#89878C" stroke-width="0.115" stroke-miterlimit="10"/>
<path d="M19.0023 22.7978H21.3399" stroke="#89878C" stroke-width="0.115" stroke-miterlimit="10"/>
<path d="M19.0023 23.9852H21.3399" stroke="#89878C" stroke-width="0.115" stroke-miterlimit="10"/>
<path d="M43.3132 21.1948H40.9756V24.8757H43.3132V21.1948Z" fill="url(#paint1_linear_2632_41762)" stroke="#5C5B5F" stroke-width="0.057495" stroke-miterlimit="10"/>
<path d="M41.7353 21.1948V24.8757" stroke="#89878C" stroke-width="0.115" stroke-miterlimit="10"/>
<path d="M42.6703 21.1948V24.8757" stroke="#89878C" stroke-width="0.115" stroke-miterlimit="10"/>
<path d="M40.9756 22.0854H43.3132" stroke="#89878C" stroke-width="0.115" stroke-miterlimit="10"/>
<path d="M40.9756 22.9165H43.3132" stroke="#89878C" stroke-width="0.115" stroke-miterlimit="10"/>
<path d="M40.9756 24.1039H43.3132" stroke="#89878C" stroke-width="0.115" stroke-miterlimit="10"/>
<path d="M50.1506 21.1948H47.813V24.8757H50.1506V21.1948Z" fill="url(#paint2_linear_2632_41762)" stroke="#5C5B5F" stroke-width="0.057495" stroke-miterlimit="10"/>
<path d="M48.5143 21.1948V24.8757" stroke="#89878C" stroke-width="0.115" stroke-miterlimit="10"/>
<path d="M49.4493 21.1948V24.8757" stroke="#89878C" stroke-width="0.115" stroke-miterlimit="10"/>
<path d="M47.813 22.0854H50.1506" stroke="#89878C" stroke-width="0.115" stroke-miterlimit="10"/>
<path d="M47.813 22.9165H50.1506" stroke="#89878C" stroke-width="0.115" stroke-miterlimit="10"/>
<path d="M47.813 24.1039H50.1506" stroke="#89878C" stroke-width="0.115" stroke-miterlimit="10"/>
<path d="M57.3386 21.1948H55.001V24.8757H57.3386V21.1948Z" fill="url(#paint3_linear_2632_41762)" stroke="#5C5B5F" stroke-width="0.057495" stroke-miterlimit="10"/>
<path d="M55.7607 21.1948V24.8757" stroke="#89878C" stroke-width="0.115" stroke-miterlimit="10"/>
<path d="M56.6373 21.1948V24.8757" stroke="#89878C" stroke-width="0.115" stroke-miterlimit="10"/>
<path d="M55.001 22.0854H57.3386" stroke="#89878C" stroke-width="0.115" stroke-miterlimit="10"/>
<path d="M55.001 22.9165H57.3386" stroke="#89878C" stroke-width="0.115" stroke-miterlimit="10"/>
<path d="M55.001 24.1039H57.3386" stroke="#89878C" stroke-width="0.115" stroke-miterlimit="10"/>
<path d="M14.0934 21.0167H11.7559V24.6976H14.0934V21.0167Z" fill="url(#paint4_linear_2632_41762)" stroke="#5C5B5F" stroke-width="0.057495" stroke-miterlimit="10"/>
<path d="M12.5156 21.0761V24.757" stroke="#89878C" stroke-width="0.115" stroke-miterlimit="10"/>
<path d="M13.4506 21.0761V24.757" stroke="#89878C" stroke-width="0.115" stroke-miterlimit="10"/>
<path d="M11.7559 21.9667H14.0934" stroke="#89878C" stroke-width="0.115" stroke-miterlimit="10"/>
<path d="M11.7559 22.7978H14.0934" stroke="#89878C" stroke-width="0.115" stroke-miterlimit="10"/>
<path d="M11.7559 23.9852H14.0934" stroke="#89878C" stroke-width="0.115" stroke-miterlimit="10"/>
<path d="M7.43133 21.0167H5.09375V24.6976H7.43133V21.0167Z" fill="url(#paint5_linear_2632_41762)" stroke="#5C5B5F" stroke-width="0.057495" stroke-miterlimit="10"/>
<path d="M5.85345 21.0761V24.757" stroke="#89878C" stroke-width="0.115" stroke-miterlimit="10"/>
<path d="M6.78851 21.0761V24.757" stroke="#89878C" stroke-width="0.115" stroke-miterlimit="10"/>
<path d="M5.09375 21.9667H7.43133" stroke="#89878C" stroke-width="0.115" stroke-miterlimit="10"/>
<path d="M5.09375 22.7978H7.43133" stroke="#89878C" stroke-width="0.115" stroke-miterlimit="10"/>
<path d="M5.09375 23.9852H7.43133" stroke="#89878C" stroke-width="0.115" stroke-miterlimit="10"/>
<path d="M26.8332 17.8107H24.4372V18.7606H26.8332V17.8107Z" fill="black"/>
<path d="M37.4692 17.8107H35.0732V18.7606H37.4692V17.8107Z" fill="black"/>
<path d="M14.9116 18.1076H10.2365V18.7607H14.9116V18.1076Z" fill="#EDEEF0" stroke="#5C5B5F" stroke-width="0.048589" stroke-miterlimit="10"/>
<path d="M22.684 18.1076H18.0089V18.7607H22.684V18.1076Z" fill="#EDEEF0" stroke="#5C5B5F" stroke-width="0.048589" stroke-miterlimit="10"/>
<path d="M44.0145 18.1076H39.3393V18.7607H44.0145V18.1076Z" fill="#EDEEF0" stroke="#5C5B5F" stroke-width="0.048589" stroke-miterlimit="10"/>
<path d="M51.67 18.1076H46.9949V18.7607H51.67V18.1076Z" fill="#EDEEF0" stroke="#5C5B5F" stroke-width="0.048589" stroke-miterlimit="10"/>
<path d="M57.5139 18.1076H54.1245V18.7607H57.5139V18.1076Z" fill="#EDEEF0" stroke="#5C5B5F" stroke-width="0.041418" stroke-miterlimit="10"/>
<path d="M7.54821 18.1076H5.21063V18.7607H7.54821V18.1076Z" fill="#EDEEF0" stroke="#5C5B5F" stroke-width="0.034234" stroke-miterlimit="10"/>
<path d="M28.4111 29.9814V27.666C28.4111 27.666 28.7033 25.5287 31.0408 25.4694C31.0408 25.4694 33.0278 25.5287 33.3784 27.7848V30.1002L28.4111 29.9814Z" fill="#464445"/>
<path d="M29.1708 29.269V27.9035C29.1708 27.9035 29.4046 26.5974 31.0409 26.5974C31.0409 26.5974 32.4434 26.6568 32.6772 27.9629V29.3284L29.1708 29.269Z" fill="url(#paint6_linear_2632_41762)"/>
<path d="M21.4568 28.7347C21.4568 27.9035 20.814 27.1911 19.9374 27.1911C19.1192 27.1911 18.418 27.9035 18.418 28.7347V32.7718H21.1646H21.3984V28.7347H21.4568Z" fill="url(#paint7_linear_2632_41762)" stroke="#5C5B5F" stroke-width="0.057495" stroke-miterlimit="10"/>
<path d="M18.4764 28.9722H21.5152" stroke="#89878C" stroke-width="0.115" stroke-miterlimit="10"/>
<path d="M18.4764 29.8627H21.4568" stroke="#89878C" stroke-width="0.115" stroke-miterlimit="10"/>
<path d="M19.353 27.3098V32.8311" stroke="#89878C" stroke-width="0.115" stroke-miterlimit="10"/>
<path d="M20.0543 27.1911V32.7718" stroke="#89878C" stroke-width="0.115" stroke-miterlimit="10"/>
<path d="M20.814 27.4286V32.8312" stroke="#89878C" stroke-width="0.115" stroke-miterlimit="10"/>
<path d="M18.4764 30.5751H21.4568" stroke="#89878C" stroke-width="0.115" stroke-miterlimit="10"/>
<path d="M18.4764 32.2969H21.4568" stroke="#89878C" stroke-width="0.115" stroke-miterlimit="10"/>
<path d="M43.5469 29.0315C43.5469 28.2003 42.9041 27.4879 42.0275 27.4879C41.2093 27.4879 40.5081 28.2003 40.5081 29.0315V33.0686H43.2547H43.4885V29.0315H43.5469Z" fill="url(#paint8_linear_2632_41762)" stroke="#5C5B5F" stroke-width="0.057495" stroke-miterlimit="10"/>
<path d="M40.5665 29.2096H43.6053" stroke="#89878C" stroke-width="0.115" stroke-miterlimit="10"/>
<path d="M40.5665 30.1595H43.5469" stroke="#89878C" stroke-width="0.115" stroke-miterlimit="10"/>
<path d="M41.4431 27.6066V33.0686" stroke="#89878C" stroke-width="0.115" stroke-miterlimit="10"/>
<path d="M42.1443 27.4879V33.0686" stroke="#89878C" stroke-width="0.115" stroke-miterlimit="10"/>
<path d="M42.9041 27.7254V33.128" stroke="#89878C" stroke-width="0.115" stroke-miterlimit="10"/>
<path d="M40.5665 30.8126H43.5469" stroke="#89878C" stroke-width="0.115" stroke-miterlimit="10"/>
<path d="M40.5665 32.5937H43.5469" stroke="#89878C" stroke-width="0.115" stroke-miterlimit="10"/>
<path d="M50.6765 29.0315C50.6765 28.2003 50.0337 27.4879 49.1571 27.4879C48.339 27.4879 47.6377 28.2003 47.6377 29.0315V33.0686H50.3843H50.6181V29.0315H50.6765Z" fill="url(#paint9_linear_2632_41762)" stroke="#5C5B5F" stroke-width="0.057495" stroke-miterlimit="10"/>
<path d="M47.6961 29.2096H50.735" stroke="#89878C" stroke-width="0.115" stroke-miterlimit="10"/>
<path d="M47.6961 30.1595H50.6765" stroke="#89878C" stroke-width="0.115" stroke-miterlimit="10"/>
<path d="M48.5728 27.6066V33.0686" stroke="#89878C" stroke-width="0.115" stroke-miterlimit="10"/>
<path d="M49.274 27.4879V33.0686" stroke="#89878C" stroke-width="0.115" stroke-miterlimit="10"/>
<path d="M50.0337 27.7254V33.128" stroke="#89878C" stroke-width="0.115" stroke-miterlimit="10"/>
<path d="M47.6961 30.8126H50.6765" stroke="#89878C" stroke-width="0.115" stroke-miterlimit="10"/>
<path d="M47.6961 32.5937H50.6765" stroke="#89878C" stroke-width="0.115" stroke-miterlimit="10"/>
<path d="M57.6893 29.0315C57.6893 28.2003 57.0465 27.4879 56.1699 27.4879C55.3517 27.4879 54.6505 28.2003 54.6505 29.0315V33.0686H57.3971H57.6309V29.0315H57.6893Z" fill="url(#paint10_linear_2632_41762)" stroke="#5C5B5F" stroke-width="0.057495" stroke-miterlimit="10"/>
<path d="M54.7089 29.2096H57.7477" stroke="#89878C" stroke-width="0.115" stroke-miterlimit="10"/>
<path d="M54.7089 30.1595H57.6308" stroke="#89878C" stroke-width="0.115" stroke-miterlimit="10"/>
<path d="M55.527 27.6066V33.0686" stroke="#89878C" stroke-width="0.115" stroke-miterlimit="10"/>
<path d="M56.2283 27.4879V33.0686" stroke="#89878C" stroke-width="0.115" stroke-miterlimit="10"/>
<path d="M56.988 27.7254V33.128" stroke="#89878C" stroke-width="0.115" stroke-miterlimit="10"/>
<path d="M54.6505 30.8126H57.6893" stroke="#89878C" stroke-width="0.115" stroke-miterlimit="10"/>
<path d="M54.6505 32.5937H57.6893" stroke="#89878C" stroke-width="0.115" stroke-miterlimit="10"/>
<path d="M14.2103 28.7941C14.2103 27.9629 13.5675 27.2505 12.6909 27.2505C11.8727 27.2505 11.1714 27.9629 11.1714 28.7941V32.8312H13.9181H14.1519V28.7941H14.2103Z" fill="url(#paint11_linear_2632_41762)" stroke="#5C5B5F" stroke-width="0.057495" stroke-miterlimit="10"/>
<path d="M11.2299 28.9722H14.2687" stroke="#89878C" stroke-width="0.115" stroke-miterlimit="10"/>
<path d="M11.2299 29.9221H14.2103" stroke="#89878C" stroke-width="0.115" stroke-miterlimit="10"/>
<path d="M12.1065 27.3692V32.8312" stroke="#89878C" stroke-width="0.115" stroke-miterlimit="10"/>
<path d="M12.8077 27.2505V32.8312" stroke="#89878C" stroke-width="0.115" stroke-miterlimit="10"/>
<path d="M13.5674 27.488V32.8906" stroke="#89878C" stroke-width="0.115" stroke-miterlimit="10"/>
<path d="M11.2299 30.5751H14.2103" stroke="#89878C" stroke-width="0.115" stroke-miterlimit="10"/>
<path d="M11.2299 32.3563H14.2103" stroke="#89878C" stroke-width="0.115" stroke-miterlimit="10"/>
<path d="M8.01569 28.7941C8.01569 27.9629 7.37286 27.2505 6.49627 27.2505C5.67811 27.2505 5.03528 27.9035 5.03528 28.7941V32.8312H7.78193H8.01569V28.7941Z" fill="url(#paint12_linear_2632_41762)" stroke="#5C5B5F" stroke-width="0.057495" stroke-miterlimit="10"/>
<path d="M4.97687 28.9722H8.07416" stroke="#89878C" stroke-width="0.115" stroke-miterlimit="10"/>
<path d="M4.97687 29.9221H7.95728" stroke="#89878C" stroke-width="0.115" stroke-miterlimit="10"/>
<path d="M5.85345 27.3692V32.8312" stroke="#89878C" stroke-width="0.115" stroke-miterlimit="10"/>
<path d="M6.55475 27.2505V32.8312" stroke="#89878C" stroke-width="0.115" stroke-miterlimit="10"/>
<path d="M7.31445 27.488V32.8906" stroke="#89878C" stroke-width="0.115" stroke-miterlimit="10"/>
<path d="M4.97687 30.5751H8.01572" stroke="#89878C" stroke-width="0.115" stroke-miterlimit="10"/>
<path d="M4.97687 32.3563H8.01572" stroke="#89878C" stroke-width="0.115" stroke-miterlimit="10"/>
<path d="M33.3784 29.8033H28.4111V36.1558H33.3784V29.8033Z" fill="#464445"/>
<path d="M24.3788 17.9295H23.3853V18.7607H24.3788V17.9295Z" fill="black"/>
<path d="M38.5796 17.9295H37.6445V18.7607H38.5796V17.9295Z" fill="black"/>
<path d="M26.132 20.7198C26.132 21.1948 25.8982 21.6104 25.606 21.6104C25.3138 21.6104 25.0801 21.1948 25.0801 20.7198C25.0801 20.2449 25.3138 19.8293 25.606 19.8293C25.8982 19.8293 26.132 20.2449 26.132 20.7198Z" stroke="#E0040B" stroke-width="0.047477" stroke-miterlimit="10"/>
<path d="M27.5345 21.9666H23.1516V22.3822H27.5345V21.9666Z" fill="#89878C"/>
<path d="M27.5345 22.5009H23.1516V22.9165H27.5345V22.5009Z" fill="#89878C"/>
<path d="M27.5345 23.0946H23.1516V23.5102H27.5345V23.0946Z" fill="#89878C"/>
<path d="M27.5345 23.6883H23.1516V24.1039H27.5345V23.6883Z" fill="#89878C"/>
<path d="M27.5345 26.5974H23.1516V27.013H27.5345V26.5974Z" fill="#89878C"/>
<path d="M27.5345 27.1317H23.1516V27.5473H27.5345V27.1317Z" fill="#89878C"/>
<path d="M27.5345 27.7254H23.1516V28.141H27.5345V27.7254Z" fill="#89878C"/>
<path d="M27.5345 28.2598H23.1516V28.6754H27.5345V28.2598Z" fill="#89878C"/>
<path d="M27.5345 28.8535H23.1516V29.269H27.5345V28.8535Z" fill="#89878C"/>
<path d="M27.5345 29.4471H23.1516V29.8627H27.5345V29.4471Z" fill="#89878C"/>
<path d="M27.5345 30.1002H23.1516V30.5158H27.5345V30.1002Z" fill="#89878C"/>
<path d="M27.5345 24.2227H23.1516V24.6382H27.5345V24.2227Z" fill="#89878C"/>
<path d="M27.5345 24.757H23.1516V25.1725H27.5345V24.757Z" fill="#89878C"/>
<path d="M27.5345 25.2913H23.1516V25.7068H27.5345V25.2913Z" fill="#89878C"/>
<path d="M27.5345 25.9443H23.1516V26.3599H27.5345V25.9443Z" fill="#89878C"/>
<path d="M38.638 22.0853H34.2551V22.5009H38.638V22.0853Z" fill="#89878C"/>
<path d="M38.638 22.6196H34.2551V23.0352H38.638V22.6196Z" fill="#89878C"/>
<path d="M38.638 23.2133H34.2551V23.6289H38.638V23.2133Z" fill="#89878C"/>
<path d="M38.638 23.807H34.2551V24.2226H38.638V23.807Z" fill="#89878C"/>
<path d="M38.638 26.7161H34.2551V27.1317H38.638V26.7161Z" fill="#89878C"/>
<path d="M38.638 27.2504H34.2551V27.666H38.638V27.2504Z" fill="#89878C"/>
<path d="M38.638 27.8441H34.2551V28.2597H38.638V27.8441Z" fill="#89878C"/>
<path d="M38.638 28.4378H34.2551V28.8534H38.638V28.4378Z" fill="#89878C"/>
<path d="M38.638 28.9722H34.2551V29.3878H38.638V28.9722Z" fill="#89878C"/>
<path d="M38.638 29.5659H34.2551V29.9814H38.638V29.5659Z" fill="#89878C"/>
<path d="M38.638 30.2189H34.2551V30.6345H38.638V30.2189Z" fill="#89878C"/>
<path d="M38.638 24.3414H34.2551V24.757H38.638V24.3414Z" fill="#89878C"/>
<path d="M38.638 24.8757H34.2551V25.2913H38.638V24.8757Z" fill="#89878C"/>
<path d="M38.638 25.41H34.2551V25.8256H38.638V25.41Z" fill="#89878C"/>
<path d="M38.638 26.1224H34.2551V26.538H38.638V26.1224Z" fill="#89878C"/>
<path d="M18.1842 30.2783V20.5417C18.2426 20.4824 18.2426 20.4824 18.2426 20.423C18.2426 20.3636 18.2426 20.3043 18.1842 20.2449C18.1842 20.1855 18.1257 20.1262 18.0088 20.1262H17.1323C17.0154 20.1262 16.9569 20.1855 16.9569 20.2449C16.8985 20.3043 16.8985 20.3636 16.8985 20.423C16.8985 20.4824 16.8985 20.5417 16.9569 20.5417V30.2783C16.8985 30.3377 16.8985 30.3377 16.8985 30.397C16.8985 30.5158 16.9569 30.5751 17.0738 30.5751H18.0673C18.1842 30.5751 18.2426 30.5158 18.2426 30.397C18.2426 30.397 18.2426 30.3377 18.1842 30.2783Z" fill="#EDEEF0" stroke="#5C5B5F" stroke-width="0.048589" stroke-miterlimit="10"/>
<path d="M23.1516 30.2783V20.5417C23.21 20.4824 23.21 20.4824 23.21 20.423C23.21 20.3636 23.1516 20.3043 23.1516 20.2449C23.1516 20.1855 23.0931 20.1262 22.9763 20.1262H22.0997C21.9828 20.1262 21.9243 20.1855 21.9243 20.2449C21.8659 20.3043 21.8659 20.3636 21.8659 20.423C21.8659 20.4824 21.8659 20.5417 21.9243 20.5417V30.2783C21.8659 30.3377 21.8659 30.3377 21.8659 30.397C21.8659 30.5158 21.9243 30.5751 22.0412 30.5751H23.0347C23.1516 30.5751 23.21 30.5158 23.21 30.397C23.21 30.397 23.1516 30.3377 23.1516 30.2783Z" fill="#EDEEF0" stroke="#5C5B5F" stroke-width="0.048589" stroke-miterlimit="10"/>
<path d="M26.7164 30.4564V19.5325C26.7748 19.4731 26.8332 19.4137 26.8332 19.3543C26.8332 19.295 26.7748 19.2356 26.7164 19.1762C26.7164 19.1169 26.541 19.0575 26.3657 19.0575H24.6125C24.4372 19.0575 24.2619 19.1169 24.2619 19.1762C24.145 19.2356 24.145 19.295 24.145 19.3543C24.145 19.4137 24.2035 19.4731 24.2619 19.5325V30.4564C24.2035 30.5158 24.145 30.5751 24.145 30.6345C24.145 30.7532 24.3203 30.872 24.4957 30.872H26.4242C26.6579 30.872 26.7748 30.7532 26.7748 30.6345C26.8332 30.5158 26.7748 30.5158 26.7164 30.4564Z" fill="#EDEEF0" stroke="#5C5B5F" stroke-width="0.071235" stroke-miterlimit="10"/>
<path d="M37.5276 30.4564V19.5325C37.5861 19.4731 37.6445 19.4137 37.6445 19.3543C37.6445 19.295 37.5861 19.2356 37.5276 19.1762C37.5276 19.1169 37.3523 19.0575 37.177 19.0575H35.4238C35.2485 19.0575 35.0732 19.1169 35.0732 19.1762C35.0147 19.2356 34.9563 19.295 34.9563 19.3543C34.9563 19.4137 35.0147 19.4731 35.0732 19.5325V30.4564C35.0147 30.5158 34.9563 30.5751 34.9563 30.6345C34.9563 30.7532 35.1316 30.872 35.3069 30.872H37.2354C37.4692 30.872 37.5861 30.7532 37.5861 30.6345C37.6445 30.5158 37.5861 30.5158 37.5276 30.4564Z" fill="#EDEEF0" stroke="#5C5B5F" stroke-width="0.071235" stroke-miterlimit="10"/>
<path d="M40.1574 30.2783V20.5417C40.2159 20.4824 40.2159 20.4824 40.2159 20.423C40.2159 20.3636 40.2159 20.3043 40.1574 20.2449C40.1574 20.1855 40.099 20.1262 39.9821 20.1262H39.1055C38.9886 20.1262 38.9302 20.1855 38.9302 20.2449C38.8718 20.3043 38.8718 20.3636 38.8718 20.423C38.8718 20.4824 38.8718 20.5417 38.9302 20.5417V30.2783C38.8718 30.3377 38.8718 30.3377 38.8718 30.397C38.8718 30.5158 38.9302 30.5751 39.0471 30.5751H40.0406C40.1574 30.5751 40.2159 30.5158 40.2159 30.397C40.2159 30.397 40.1574 30.3377 40.1574 30.2783Z" fill="#EDEEF0" stroke="#5C5B5F" stroke-width="0.048589" stroke-miterlimit="10"/>
<path d="M45.2417 30.2783V20.5417C45.3001 20.4824 45.3001 20.4824 45.3001 20.423C45.3001 20.3636 45.3001 20.3043 45.2417 20.2449C45.2417 20.1855 45.1832 20.1262 45.0663 20.1262H44.1898C44.0729 20.1262 44.0144 20.1855 44.0144 20.2449C43.956 20.3043 43.956 20.3636 43.956 20.423C43.956 20.4824 43.956 20.5417 44.0144 20.5417V30.2783C43.956 30.3377 43.956 30.3377 43.956 30.397C43.956 30.5158 44.0144 30.5751 44.1313 30.5751H45.1248C45.2417 30.5751 45.3001 30.5158 45.3001 30.397C45.3001 30.397 45.2417 30.3377 45.2417 30.2783Z" fill="#EDEEF0" stroke="#5C5B5F" stroke-width="0.048589" stroke-miterlimit="10"/>
<path d="M46.9364 30.2783V20.5417C46.9949 20.4824 46.9949 20.4824 46.9949 20.423C46.9949 20.3636 46.9364 20.3043 46.9364 20.2449C46.9364 20.1855 46.878 20.1262 46.7611 20.1262H45.8845C45.7676 20.1262 45.7092 20.1855 45.7092 20.2449C45.6508 20.3043 45.6508 20.3636 45.6508 20.423C45.6508 20.4824 45.6508 20.5417 45.7092 20.5417V30.2783C45.6508 30.3377 45.6508 30.3377 45.6508 30.397C45.6508 30.5158 45.7092 30.5751 45.8261 30.5751H46.8195C46.9364 30.5751 46.9949 30.5158 46.9949 30.397C47.0533 30.397 46.9949 30.3377 46.9364 30.2783Z" fill="#EDEEF0" stroke="#5C5B5F" stroke-width="0.048589" stroke-miterlimit="10"/>
<path d="M52.4882 30.2783V20.5417C52.5466 20.4824 52.5466 20.4824 52.5466 20.423C52.5466 20.3636 52.4882 20.3043 52.4882 20.2449C52.4882 20.1855 52.4297 20.1262 52.3129 20.1262H51.4363C51.3194 20.1262 51.261 20.1855 51.261 20.2449C51.2025 20.3043 51.2025 20.3636 51.2025 20.423C51.2025 20.4824 51.2025 20.5417 51.261 20.5417V30.2783C51.2025 30.3377 51.2025 30.3377 51.2025 30.397C51.2025 30.5158 51.261 30.5751 51.3778 30.5751H52.3713C52.4882 30.5751 52.5466 30.5158 52.5466 30.397C52.5466 30.397 52.4882 30.3377 52.4882 30.2783Z" fill="#EDEEF0" stroke="#5C5B5F" stroke-width="0.048589" stroke-miterlimit="10"/>
<path d="M54.3582 30.2783V20.5417C54.4167 20.4824 54.4167 20.4824 54.4167 20.423C54.4167 20.3636 54.4167 20.3043 54.3582 20.2449C54.3582 20.1855 54.2998 20.1262 54.1829 20.1262H53.3063C53.1895 20.1262 53.131 20.1855 53.131 20.2449C53.0726 20.3043 53.0726 20.3636 53.0726 20.423C53.0726 20.4824 53.0726 20.5417 53.131 20.5417V30.2783C53.0726 30.3377 53.0726 30.3377 53.0726 30.397C53.0726 30.5158 53.131 30.5751 53.2479 30.5751H54.2414C54.3582 30.5751 54.4167 30.5158 54.4167 30.397C54.4167 30.397 54.4167 30.3377 54.3582 30.2783Z" fill="#EDEEF0" stroke="#5C5B5F" stroke-width="0.048589" stroke-miterlimit="10"/>
<path d="M16.1972 30.2783V20.5417C16.2557 20.4824 16.2557 20.4824 16.2557 20.423C16.2557 20.3636 16.2557 20.3043 16.1972 20.2449C16.1972 20.1855 16.1388 20.1262 16.0219 20.1262H15.1453C15.0284 20.1262 14.97 20.1855 14.97 20.2449C14.9116 20.3043 14.9116 20.3636 14.9116 20.423C14.9116 20.4824 14.9116 20.5417 14.97 20.5417V30.2783C14.9116 30.3377 14.9116 30.3377 14.9116 30.397C14.9116 30.5158 15.0284 30.5751 15.0869 30.5751H16.0803C16.1972 30.5751 16.2557 30.5158 16.2557 30.397C16.2557 30.397 16.2557 30.3377 16.1972 30.2783Z" fill="#EDEEF0" stroke="#5C5B5F" stroke-width="0.048589" stroke-miterlimit="10"/>
<path d="M10.9377 30.2783V20.5417C10.9961 20.4824 10.9961 20.4824 10.9961 20.423C10.9961 20.3636 10.9377 20.3043 10.9377 20.2449C10.9377 20.1855 10.8793 20.1262 10.7624 20.1262H9.8858C9.76892 20.1262 9.71048 20.1855 9.71048 20.2449C9.65204 20.3043 9.65204 20.3636 9.65204 20.423C9.65204 20.4824 9.65204 20.5417 9.71048 20.5417V30.2783C9.65204 30.3377 9.65204 30.3377 9.65204 30.397C9.65204 30.5158 9.71048 30.5751 9.82736 30.5751H10.8208C10.9377 30.5751 10.9961 30.5158 10.9961 30.397C10.9961 30.397 10.9377 30.3377 10.9377 30.2783Z" fill="#EDEEF0" stroke="#5C5B5F" stroke-width="0.048589" stroke-miterlimit="10"/>
<path d="M9.00918 30.2783V20.5417C9.06762 20.4824 9.06762 20.4824 9.06762 20.423C9.06762 20.3636 9.06762 20.3043 9.00918 20.2449C9.00918 20.1855 8.95074 20.1262 8.83386 20.1262H7.95727C7.84039 20.1262 7.78195 20.1855 7.78195 20.2449C7.72351 20.3043 7.72351 20.3636 7.72351 20.423C7.72351 20.4824 7.72351 20.5417 7.78195 20.5417V30.2783C7.72351 30.3377 7.72351 30.3377 7.72351 30.397C7.72351 30.5158 7.78195 30.5751 7.89883 30.5751H8.8923C9.00918 30.5751 9.06762 30.5158 9.06762 30.397C9.06762 30.397 9.00918 30.3377 9.00918 30.2783Z" fill="#EDEEF0" stroke="#5C5B5F" stroke-width="0.048589" stroke-miterlimit="10"/>
<path d="M26.0735 20.8386C26.0735 21.3136 25.8398 21.7291 25.5476 21.7291C25.2554 21.7291 25.0216 21.3136 25.0216 20.8386C25.0216 20.3636 25.2554 19.9481 25.5476 19.9481C25.8398 19.9481 26.0735 20.3636 26.0735 20.8386Z" fill="#B0AFB5"/>
<path d="M36.8848 20.8386C36.8848 21.3136 36.651 21.7291 36.3588 21.7291C36.0666 21.7291 35.8329 21.3136 35.8329 20.8386C35.8329 20.3636 36.0666 19.9481 36.3588 19.9481C36.651 19.9481 36.8848 20.3636 36.8848 20.8386Z" fill="#B0AFB5"/>
<path d="M23.21 11.9332H38.9302L38.2873 12.9425H23.7359L23.21 11.9332Z" fill="#EDEEF0" stroke="#5C5B5F" stroke-width="0.048589" stroke-miterlimit="10"/>
<path d="M26.7164 12.9425H24.7294V15.7329H26.7164V12.9425Z" fill="#B0AFB5" stroke="#5C5B5F" stroke-width="0.048589" stroke-miterlimit="10"/>
<path d="M26.4826 13.2394H25.0801V15.3767H26.4826V13.2394Z" fill="#B0AFB5"/>
<path d="M37.3524 13.0018H35.3654V15.7922H37.3524V13.0018Z" fill="#B0AFB5" stroke="#5C5B5F" stroke-width="0.048589" stroke-miterlimit="10"/>
<path d="M37.0601 13.2393H35.6576V15.3766H37.0601V13.2393Z" fill="#B0AFB5"/>
<path fill-rule="evenodd" clip-rule="evenodd" d="M33.8459 22.7384C33.9044 22.6791 33.9044 22.5603 34.0213 22.5009C34.0797 22.6197 34.255 22.6791 34.5472 22.6791C34.4888 22.9759 34.6641 23.154 34.6057 23.5696C34.8979 23.5696 35.1901 23.5696 35.4822 23.5696C35.3654 23.7477 34.8394 23.5696 34.5472 23.629C34.4888 23.8664 34.3719 24.0445 34.4303 24.3414C34.3719 24.3414 34.3719 24.282 34.255 24.282C34.4303 24.6382 34.255 24.757 34.3135 25.1726C34.0797 25.1726 33.9628 24.9945 34.1381 24.8757C33.9628 24.8163 34.0797 25.0538 33.9628 24.9944C33.9628 24.757 34.1966 24.757 34.255 24.8757C34.1381 24.6976 33.9628 24.5789 33.7291 24.5789C33.6706 24.8163 34.0213 24.5789 33.9044 24.757C33.7875 24.9351 33.7291 24.5789 33.6706 24.757C33.5537 24.6382 33.5537 24.5195 33.2615 24.4601C33.0278 24.5789 32.7356 24.6976 32.5603 24.8757C32.6187 24.5789 32.2681 24.757 32.0928 24.6976C32.0928 24.5789 32.0343 24.5195 31.9174 24.5195C31.9759 24.3414 31.9759 24.3414 31.9174 24.2227C31.859 24.4601 31.7421 24.282 31.6837 24.5195C31.6252 24.2227 31.3915 24.757 31.3915 24.3414C31.333 24.4601 31.0408 24.4601 31.0993 24.6976C30.8655 24.6976 30.7487 24.5789 30.5733 24.4008C30.3396 24.4601 30.1643 24.4601 30.1058 24.3414C29.8136 24.4601 29.6383 24.8163 29.2292 24.6382C29.1708 24.6382 29.2292 24.6976 29.2292 24.8163C29.1123 24.6976 28.9955 24.5789 28.9955 24.3414C28.937 24.2227 28.8201 24.5195 28.7617 24.282C28.8201 24.1039 28.8786 24.1039 28.937 23.8071C29.0539 23.9258 29.1123 23.9258 29.1123 23.6883C29.2292 23.7477 29.2292 23.8664 29.2877 23.9258C29.2877 23.8664 29.1708 23.5102 29.1123 23.3915C29.1708 23.2727 29.3461 23.5102 29.2877 23.629C29.3461 23.5696 29.3461 23.5102 29.4045 23.4509C29.463 23.4509 29.463 23.5696 29.5214 23.5696C29.5214 23.4509 29.1123 23.0946 29.463 23.0946C29.463 23.0353 29.3461 23.0353 29.3461 22.9165C29.1708 23.0353 29.2292 23.2134 28.9955 23.0946C28.9955 23.2134 28.9955 23.3321 29.1123 23.3321C28.8786 23.629 28.7033 24.1633 28.5864 24.4008C28.3526 24.4008 28.2942 24.5789 28.0604 24.5789C28.0604 24.6382 28.0604 24.6976 28.0604 24.757C27.8267 24.757 27.8851 24.9351 27.5929 24.9351C27.5345 24.8163 27.6514 24.5195 27.5345 24.4601C27.5345 24.3414 27.7098 24.4008 27.7098 24.3414C27.4176 24.282 27.6514 23.7477 27.5345 23.4509C27.5345 23.4509 27.3592 23.154 27.476 23.2727C27.4176 23.2134 27.3592 23.3321 27.3007 23.2134C27.3592 22.8572 27.3592 22.6197 27.5345 22.3228C27.6514 22.3228 27.7682 22.2635 27.7098 22.4416C27.8267 22.5009 27.6514 22.2041 27.8267 22.2635C28.002 22.2041 27.8851 22.3822 27.8851 22.4416C28.1189 22.5009 28.002 22.2041 28.2358 22.2635C28.1189 20.8386 29.1123 19.5325 30.2811 19.2356C30.6902 19.1169 31.5084 19.1763 31.8006 19.4137C31.8006 19.3544 31.8006 19.295 31.7421 19.295C32.6187 19.5325 33.4953 20.423 33.6706 21.7885C33.7291 22.0854 33.6706 22.3822 33.7875 22.4416C33.8459 22.5009 33.8459 22.2635 33.8459 22.2635C33.8459 22.5603 33.8459 22.6791 33.8459 22.7384ZM34.4303 23.3321C34.3719 23.4509 34.3135 23.7477 34.3719 23.6883C34.3719 23.5696 34.6057 23.5102 34.4888 23.5102C34.3135 23.629 34.5472 23.2727 34.4303 23.3321ZM31.6252 20.2449C31.4499 20.1855 31.7421 20.1855 31.6837 20.0668C31.5084 19.9481 31.4499 20.2449 31.2746 20.2449C31.2746 20.3637 31.2746 20.423 31.2746 20.5418C31.3915 20.4824 31.4499 20.7199 31.4499 20.5418C31.333 20.5418 31.4499 20.3043 31.3915 20.2449C31.5084 20.423 31.859 20.1262 31.6252 20.2449ZM30.924 21.0761C30.924 20.8386 31.1577 20.7792 31.2162 20.6011C31.0408 20.5418 30.6902 20.5418 30.5733 20.6011C30.5733 20.5418 30.5733 20.4824 30.5733 20.423C30.398 20.4824 30.2811 20.6605 30.2227 20.8386C30.4565 20.6605 30.7487 20.8386 31.0408 20.6605C31.0993 21.0761 30.5733 20.8386 30.5733 21.1355C30.8071 21.0761 30.6902 21.1948 30.7487 21.2542C30.7487 21.2542 30.8071 21.1948 30.8071 21.2542C30.7486 21.4323 30.6318 21.2542 30.6902 21.4917C30.5733 21.4917 30.5149 21.4917 30.398 21.4917C30.398 21.551 30.398 21.6104 30.3396 21.6104C30.4565 21.1355 30.0474 21.4917 30.1643 21.0761C30.1058 20.9573 30.0474 21.1355 29.9889 21.0167C30.0474 21.0167 30.0474 21.0167 30.0474 20.9573C29.7552 21.1355 29.9305 21.551 29.8721 22.0854C30.2811 22.026 29.8721 22.5009 30.1643 22.5603C30.2227 22.3822 30.1058 22.2635 30.1643 21.9666C30.0474 21.9073 29.9889 21.9666 29.9305 21.7885C30.2811 21.8479 29.9889 21.6104 30.1643 21.4323C30.3396 21.4917 30.1643 21.6698 30.2811 21.7291C30.3396 21.6698 30.3396 21.551 30.4565 21.551C30.4565 21.6698 30.5733 21.6698 30.5149 21.7885C30.398 21.9073 30.3396 21.7291 30.3396 21.9073C30.2811 22.3822 30.5149 22.9165 30.8655 22.9759C30.8071 22.7978 30.7487 22.9165 30.924 22.7978C30.8655 22.7978 30.8655 22.7384 30.7487 22.7978C30.7487 22.6791 30.6318 22.5603 30.7487 22.5009C30.7487 22.5603 30.8071 22.6197 30.8655 22.5603C30.6318 22.3822 30.8071 21.9666 30.5733 21.8479C30.8071 21.7885 30.924 22.0854 30.9824 21.8479C30.8655 21.7291 30.6902 21.8479 30.6318 21.6698C30.8655 21.551 30.9824 21.6698 31.0408 21.4917C31.0993 21.4917 31.0993 21.4917 31.1577 21.4917C31.0408 21.6104 31.1577 21.6104 31.2162 21.6698C31.0993 21.6104 30.9824 21.7885 31.0993 21.8479C31.1577 21.7291 31.4499 21.9666 31.5668 21.7885C31.5084 21.6104 31.4499 21.3729 31.3915 21.6104C31.0408 21.551 31.3915 21.1948 31.2746 21.0761C31.2746 21.2542 30.9824 21.4323 30.8655 21.3136C31.1577 21.3136 31.0408 20.9573 30.924 21.0761ZM31.6837 21.3729C31.6837 21.4917 31.6252 21.551 31.5084 21.551C31.5084 21.7291 31.6837 21.9073 31.5668 22.026C31.6252 22.026 31.6837 22.026 31.7421 22.026C31.8006 21.7885 31.7421 21.7291 31.8006 21.4917C31.7421 21.4917 31.6837 21.551 31.6252 21.4917C31.7421 21.4917 31.7421 21.3729 31.6837 21.3729ZM31.333 22.1447C31.2746 21.9666 31.4499 21.9073 31.333 21.8479C31.2162 21.9073 30.9824 21.8479 30.8655 21.9666C31.1577 21.9666 31.0408 22.1447 31.333 22.1447ZM32.0928 22.1447C32.3265 22.1447 32.8525 22.5603 33.0278 22.0854C33.0278 22.1447 33.1447 22.1447 33.2031 22.1447C33.2031 22.026 33.0862 21.9666 32.9694 21.9666C32.8525 22.1447 32.7356 22.0854 32.6187 22.2041C32.5018 22.0854 32.2681 22.0854 32.2096 21.8479C32.2681 22.026 32.0928 21.9666 32.0928 22.1447ZM29.3461 22.3228C29.5214 22.2635 29.5799 22.3228 29.6967 22.2041C29.463 22.2635 29.4045 22.1447 29.2877 22.026C29.2877 22.2041 29.2877 22.2635 29.3461 22.3228ZM33.32 22.3822C33.4369 22.3822 33.4369 22.3228 33.4953 22.2635C33.4953 22.3228 33.4953 22.3822 33.5537 22.3822C33.6122 22.2041 33.4953 22.2041 33.3784 22.2041C33.32 22.2635 33.32 22.3228 33.32 22.3822ZM28.8786 22.5603C28.7617 22.5009 28.7617 22.4416 28.6448 22.3822C28.6448 22.5603 28.8201 22.5603 28.937 22.6197C28.937 22.5009 28.9955 22.5009 29.1123 22.5603C29.0539 22.3822 29.4045 22.3228 29.2877 22.2635C29.0539 22.3822 28.9955 22.5009 28.8786 22.5603ZM28.7033 23.3321C28.7033 23.5102 28.4695 23.8071 28.8201 23.9258C28.8786 23.6883 28.7617 23.5696 28.7033 23.4509C28.8786 23.4509 28.8786 23.629 28.9955 23.4509C28.7033 23.5102 28.8201 23.3321 28.8786 23.2727C28.4111 23.2727 28.7033 22.5603 28.4111 22.3822C28.4111 22.7384 28.6448 22.9759 28.7033 23.3321ZM29.3461 22.7384C29.3461 22.9759 29.463 23.0946 29.6383 23.154C29.5214 22.9165 29.463 22.8572 29.463 22.6791C29.463 22.7384 29.4045 22.7384 29.3461 22.7384ZM32.2096 23.4509C32.2096 23.3915 32.2681 23.3321 32.3265 23.2727C32.3265 23.5102 32.2681 23.5696 32.4434 23.7477C32.4434 23.5102 32.5018 23.7477 32.5603 23.7477C32.5603 23.6883 32.6187 23.6883 32.7356 23.6883C32.6772 23.5102 32.8525 23.5102 32.9109 23.3915C32.5603 23.3915 32.9109 22.7384 32.385 22.8572C32.385 22.9165 32.385 22.9165 32.385 22.9759C32.385 23.0353 32.385 23.0353 32.4434 23.0353C32.4434 22.9759 32.4434 22.9165 32.5603 22.9165C32.6187 23.0946 32.385 23.0946 32.5018 23.2134C32.4434 23.2134 32.4434 23.154 32.3265 23.2134C32.2681 23.3321 32.0343 23.4509 32.2096 23.4509ZM30.1643 23.154C30.2227 23.154 30.2811 23.154 30.3396 23.154C30.3396 23.0946 30.3396 23.0353 30.3396 22.9759C30.2227 22.9165 30.1058 22.9759 30.1643 23.154ZM32.0928 23.5696C31.9174 23.3915 32.3265 23.0946 32.0928 23.0353C32.0928 23.2134 31.859 23.5102 32.0928 23.5696ZM29.6383 24.2227C29.4045 24.282 29.6967 24.1039 29.5214 24.1039C29.5214 24.282 29.3461 23.9852 29.3461 24.1633C29.5214 24.1633 29.463 24.3414 29.6383 24.3414C29.7552 23.8664 30.3396 24.1039 30.6318 23.8071C30.5733 23.8071 30.398 23.9258 30.3396 23.8071C30.6318 23.6883 30.5733 23.5102 30.8655 23.4509C30.6902 23.3915 30.924 23.3321 30.8655 23.2134C30.6318 23.2727 30.4565 23.3915 30.3396 23.5696C30.398 23.3915 30.2811 23.3915 30.2811 23.2134C30.2227 23.2134 30.1643 23.2134 30.1058 23.2134C30.1058 23.5102 30.1058 23.6883 30.1643 23.9258C29.8136 23.9852 29.7552 24.0445 29.6383 24.2227ZM31.2162 23.8071C31.333 23.9852 31.8006 24.0445 31.9759 23.9852C31.6252 23.9258 32.0928 23.2727 31.7421 23.154C31.859 23.4509 31.5084 23.6883 31.8006 23.8664C31.5668 23.8664 31.333 23.9258 31.2162 23.8071ZM31.6252 23.2727C31.5668 23.2727 31.5084 23.2134 31.4499 23.2134C31.4499 23.3915 31.3915 23.629 31.5668 23.6883C31.5084 23.5102 31.6252 23.4509 31.6252 23.2727ZM33.6706 23.2727C33.6706 23.3321 33.6122 23.5102 33.7291 23.5102C33.6706 23.3915 33.9044 23.2727 33.7875 23.2134C33.7291 23.2727 33.7291 23.2727 33.6706 23.2727ZM30.924 23.629C31.0408 23.629 31.1577 23.629 31.0993 23.4509C31.0408 23.4509 31.0408 23.3915 30.924 23.3915C31.0408 23.5102 30.924 23.5102 30.924 23.629ZM32.6187 23.9852C32.794 23.9852 32.794 23.8664 32.8525 23.8664C32.6772 23.7477 33.0278 23.629 32.8525 23.5102C32.8525 23.8071 32.6187 23.7477 32.6187 23.9852ZM29.6383 23.7477C29.6383 23.8664 29.463 23.8071 29.463 23.9258C29.5799 23.9852 29.5799 23.9258 29.6967 23.9852C29.6967 23.8664 29.6967 23.7477 29.5799 23.6883C29.6383 23.629 29.6383 23.6883 29.6383 23.7477ZM33.0862 23.8664C33.2615 23.8664 33.0862 23.9258 33.1447 24.0445C33.32 24.0445 33.4369 24.0445 33.5537 24.1039C33.4953 23.9852 33.2031 23.6883 33.0862 23.8664ZM29.5799 24.5195C29.3461 24.6382 29.1708 24.3414 29.0539 24.4601C29.463 24.8757 29.8136 24.1039 29.9889 24.282C29.9889 24.1633 29.9305 24.1039 29.8136 24.1039C29.8136 24.282 29.7552 24.4601 29.5799 24.5195ZM33.0278 24.5195C33.0862 24.4008 33.2615 24.282 33.32 24.1633C33.0862 24.0445 33.0278 24.4008 33.0278 24.5195ZM33.9628 24.4601C33.8459 24.3414 33.7875 24.4601 33.6706 24.282C33.6706 24.4008 33.8459 24.5789 33.9628 24.4601Z" fill="#89878C"/>
<path fill-rule="evenodd" clip-rule="evenodd" d="M30.1643 6.17439L30.9825 4.21521L31.2747 5.69944C31.2747 5.75881 30.7487 5.69944 30.1643 6.17439Z" fill="#89878C"/>
<path fill-rule="evenodd" clip-rule="evenodd" d="M30.1058 7.30238C30.1058 7.30238 30.6318 7.12428 30.8071 7.00554C30.9824 6.8868 31.0993 7.12428 31.3331 7.12428C31.5668 7.12428 31.5668 7.12428 31.5668 7.12428C31.5668 7.12428 31.859 7.77734 31.9175 8.25229C31.9759 8.72724 31.5084 8.4304 31.5084 8.4304C31.5084 8.4304 31.2746 7.95544 30.8071 8.25229L30.1058 7.30238Z" fill="#89878C"/>
<path d="M9.82732 18.0482H8.48322V18.82H9.82732V18.0482Z" fill="#B0AFB5"/>
<path d="M12.5156 15.0204H11.2883V15.7328H12.5156V15.0204Z" fill="#B0AFB5"/>
<path d="M7.43133 15.0204H6.2041V15.7328H7.43133V15.0204Z" fill="#B0AFB5"/>
<path d="M14.2103 15.0204H12.9831V15.7328H14.2103V15.0204Z" fill="#B0AFB5"/>
<path d="M20.1127 15.0204H18.8854V15.7328H20.1127V15.0204Z" fill="#B0AFB5"/>
<path d="M21.8074 15.0204H20.5802V15.7328H21.8074V15.0204Z" fill="#B0AFB5"/>
<path d="M41.2093 15.2579H39.9821V15.9703H41.2093V15.2579Z" fill="#B0AFB5"/>
<path d="M42.8456 15.2579H41.6184V15.9703H42.8456V15.2579Z" fill="#B0AFB5"/>
<path d="M48.8649 15.2579H47.6377V15.9703H48.8649V15.2579Z" fill="#B0AFB5"/>
<path d="M50.5597 15.2579H49.3325V15.9703H50.5597V15.2579Z" fill="#B0AFB5"/>
<path d="M56.5789 15.2579H55.3517V15.9703H56.5789V15.2579Z" fill="#B0AFB5"/>
<path d="M16.8986 18.0482H15.5544V18.82H16.8986V18.0482Z" fill="#B0AFB5"/>
<path d="M46.4105 18.0482H45.0663V18.82H46.4105V18.0482Z" fill="#B0AFB5"/>
<path d="M53.5401 18.0482H52.196V18.82H53.5401V18.0482Z" fill="#B0AFB5"/>
<path d="M25.606 31.8813H24.2619C24.2619 31.8813 24.2035 32.1188 24.3788 32.3562C24.3788 32.3562 24.2619 33.0093 24.4372 33.0687C24.4372 33.0687 24.2035 33.8405 24.4372 33.8998H25.8398H25.8982H26.0151H26.0735H27.4761C27.7098 33.7811 27.4761 33.0687 27.4761 33.0687C27.593 33.0093 27.5345 32.3562 27.5345 32.3562C27.7098 32.1781 27.6514 31.8813 27.6514 31.8813H26.0151H25.606Z" fill="#EDEEF0" stroke="#5C5B5F" stroke-width="0.071235" stroke-miterlimit="10"/>
<path d="M22.5671 31.8813H21.223C21.223 31.8813 21.1646 32.1188 21.3399 32.3562C21.3399 32.3562 21.223 33.0093 21.3984 33.0687C21.3984 33.0687 21.1646 33.8405 21.3984 33.8998H22.8009H22.8593H22.9762H23.0347H24.3203C24.5541 33.7811 24.3203 33.0687 24.3203 33.0687C24.4372 33.0093 24.3788 32.3562 24.3788 32.3562C24.5541 32.1781 24.4956 31.8813 24.4956 31.8813H22.8593H22.5671Z" fill="#EDEEF0" stroke="#5C5B5F" stroke-width="0.071235" stroke-miterlimit="10"/>
<path d="M16.2557 31.1688H14.9116C14.9116 31.1688 14.8531 31.4063 15.0285 31.6438C15.0285 31.6438 14.9116 32.2968 15.0869 32.3562C15.0869 32.3562 14.8531 33.128 15.0869 33.1874H16.4894H16.5479H16.6648H16.7232H18.1257C18.3595 33.0686 18.1257 32.3562 18.1257 32.3562C18.2426 32.2968 18.1842 31.6438 18.1842 31.6438C18.3595 31.4657 18.3011 31.1688 18.3011 31.1688H16.6648H16.2557Z" fill="#EDEEF0" stroke="#5C5B5F" stroke-width="0.071235" stroke-miterlimit="10"/>
<path d="M9.00922 31.1688H7.66511C7.66511 31.1688 7.60667 31.4063 7.78199 31.6438C7.78199 31.6438 7.66511 32.2968 7.84043 32.3562C7.84043 32.3562 7.60667 33.128 7.84043 33.1874H9.1261H9.18454H9.30142H9.35986H10.7624C10.9962 33.0686 10.7624 32.3562 10.7624 32.3562C10.9377 32.2968 10.8208 31.6438 10.8208 31.6438C10.9962 31.4657 10.9377 31.1688 10.9377 31.1688H9.30142H9.00922Z" fill="#EDEEF0" stroke="#5C5B5F" stroke-width="0.071235" stroke-miterlimit="10"/>
<path d="M36.1251 31.8813H34.781C34.781 31.8813 34.7226 32.1188 34.8979 32.3562C34.8979 32.3562 34.781 33.0093 34.9563 33.0687C34.9563 33.0687 34.7226 33.8405 34.9563 33.8998H36.3589H36.4173H36.5342H36.5926H37.9952C38.2289 33.7811 37.9952 33.0687 37.9952 33.0687C38.1705 33.0093 38.0536 32.3562 38.0536 32.3562C38.2289 32.1781 38.1705 31.8813 38.1705 31.8813H36.5342H36.1251Z" fill="#EDEEF0" stroke="#5C5B5F" stroke-width="0.071235" stroke-miterlimit="10"/>
<path d="M39.2808 31.8813H37.9367C37.9367 31.8813 37.8783 32.1188 38.0536 32.3562C38.0536 32.3562 37.9367 33.0093 38.112 33.0687C38.112 33.0687 37.8783 33.8405 38.112 33.8998H39.5146H39.6315H39.6899H41.0924C41.3262 33.7811 41.0924 33.0687 41.0924 33.0687C41.2678 33.0093 41.1509 32.3562 41.1509 32.3562C41.3262 32.1781 41.2678 31.8813 41.2678 31.8813H39.5146H39.2808Z" fill="#EDEEF0" stroke="#5C5B5F" stroke-width="0.071235" stroke-miterlimit="10"/>
<path d="M45.1248 31.1688H43.7807C43.7807 31.1688 43.7223 31.4063 43.8976 31.6438C43.8976 31.6438 43.7807 32.2968 43.956 32.3562C43.956 32.3562 43.7223 33.128 43.956 33.1874H45.3586H45.4755H45.5339H46.9364C47.1702 33.0686 46.9364 32.3562 46.9364 32.3562C47.0533 32.2968 46.9949 31.6438 46.9949 31.6438C47.1702 31.4657 47.1118 31.1688 47.1118 31.1688H45.3586H45.1248Z" fill="#EDEEF0" stroke="#5C5B5F" stroke-width="0.071235" stroke-miterlimit="10"/>
<path d="M52.4882 31.1688H51.1441C51.1441 31.1688 51.0856 31.4063 51.2609 31.6438C51.2609 31.6438 51.1441 32.2968 51.3194 32.3562C51.3194 32.3562 51.0856 33.128 51.3194 33.1874H52.7219H52.7804H52.8972H52.9557H54.3582C54.592 33.0686 54.3582 32.3562 54.3582 32.3562C54.4751 32.2968 54.4167 31.6438 54.4167 31.6438C54.592 31.4657 54.5335 31.1688 54.5335 31.1688H52.8972H52.4882Z" fill="#EDEEF0" stroke="#5C5B5F" stroke-width="0.071235" stroke-miterlimit="10"/>
<path d="M32.5603 30.2783H29.1708V35.7403H32.5603V30.2783Z" fill="#5C5B5F"/>
<path d="M28.4695 34.1967H4.97687V37.0464H28.4695V34.1967Z" fill="#5C5B5F"/>
<path d="M57.8062 34.1967H33.3785V37.0464H57.8062V34.1967Z" fill="#5C5B5F"/>
<path d="M27.8852 34.1967H24.3788V36.9276H27.8852V34.1967Z" fill="#504F51"/>
<path d="M38.1705 34.1967H34.6641V36.9276H38.1705V34.1967Z" fill="#504F51"/>
<path d="M30.9824 8.60852V10.5677" stroke="#89878C" stroke-width="0.23" stroke-miterlimit="10"/>
<path d="M11.113 30.8126C11.113 30.9907 10.9377 31.1689 10.7624 31.1689H7.78197C7.60665 31.1689 7.43134 30.9907 7.43134 30.8126C7.43134 30.6345 7.60665 30.4564 7.78197 30.4564H10.7624C10.9377 30.4564 11.113 30.6345 11.113 30.8126Z" fill="#EDEEF0" stroke="#5C5B5F" stroke-width="0.071235" stroke-miterlimit="10"/>
<path d="M18.418 30.8126C18.418 30.9907 18.2426 31.1689 18.0673 31.1689H15.0869C14.9116 31.1689 14.7363 30.9907 14.7363 30.8126C14.7363 30.6345 14.9116 30.4564 15.0869 30.4564H18.0673C18.2426 30.4564 18.418 30.6345 18.418 30.8126Z" fill="#EDEEF0" stroke="#5C5B5F" stroke-width="0.071235" stroke-miterlimit="10"/>
<path d="M47.287 30.8126C47.287 30.9907 47.1117 31.1689 46.9364 31.1689H43.956C43.7807 31.1689 43.6053 30.9907 43.6053 30.8126C43.6053 30.6345 43.7807 30.4564 43.956 30.4564H46.9364C47.1117 30.4564 47.287 30.6345 47.287 30.8126Z" fill="#EDEEF0" stroke="#5C5B5F" stroke-width="0.071235" stroke-miterlimit="10"/>
<path d="M54.592 30.8126C54.592 30.9907 54.4166 31.1689 54.2413 31.1689H51.2609C51.0856 31.1689 50.9103 30.9907 50.9103 30.8126C50.9103 30.6345 51.0856 30.4564 51.2609 30.4564H54.2413C54.4166 30.4564 54.592 30.6345 54.592 30.8126Z" fill="#EDEEF0" stroke="#5C5B5F" stroke-width="0.071235" stroke-miterlimit="10"/>
<path d="M26.9501 31.1095C27.067 31.0501 27.1254 30.9314 27.1254 30.8126C27.1254 30.6345 27.0086 30.4564 26.8332 30.4564H24.3203C24.145 30.4564 24.0281 30.6345 24.0281 30.8126C24.0281 30.9314 24.0866 31.0501 24.2035 31.1095C24.0866 31.1689 24.0281 31.2876 24.0281 31.4063C24.0281 31.5844 24.145 31.7625 24.3203 31.7625H26.8332C27.0086 31.7625 27.1254 31.5844 27.1254 31.4063C27.1254 31.2876 27.067 31.1689 26.9501 31.1095Z" fill="#EDEEF0" stroke="#5C5B5F" stroke-width="0.065598" stroke-miterlimit="10"/>
<path d="M37.703 31.1095C37.8199 31.0501 37.8783 30.9314 37.8783 30.8126C37.8783 30.6345 37.7614 30.4564 37.5861 30.4564H35.0732C34.8979 30.4564 34.781 30.6345 34.781 30.8126C34.781 30.9314 34.8394 31.0501 34.9563 31.1095C34.8394 31.1689 34.781 31.2876 34.781 31.4063C34.781 31.5844 34.8979 31.7625 35.0732 31.7625H37.5861C37.7614 31.7625 37.8783 31.5844 37.8783 31.4063C37.8783 31.2876 37.8199 31.1689 37.703 31.1095Z" fill="#EDEEF0" stroke="#5C5B5F" stroke-width="0.065598" stroke-miterlimit="10"/>
<path d="M40.8003 31.1095C40.9171 31.0501 40.9756 30.9314 40.9756 30.8126C40.9756 30.6345 40.8587 30.4564 40.6834 30.4564H38.1705C37.9952 30.4564 37.8783 30.6345 37.8783 30.8126C37.8783 30.9314 37.9367 31.0501 38.0536 31.1095C37.9367 31.1689 37.8783 31.2876 37.8783 31.4063C37.8783 31.5844 37.9952 31.7625 38.1705 31.7625H40.6834C40.8587 31.7625 40.9756 31.5844 40.9756 31.4063C40.9756 31.2876 40.9171 31.1689 40.8003 31.1095Z" fill="#EDEEF0" stroke="#5C5B5F" stroke-width="0.065598" stroke-miterlimit="10"/>
<path d="M24.0866 31.1095C24.2035 31.0501 24.2619 30.9314 24.2619 30.8126C24.2619 30.6345 24.145 30.4564 23.9697 30.4564H21.4568C21.2815 30.4564 21.1646 30.6345 21.1646 30.8126C21.1646 30.9314 21.2231 31.0501 21.3399 31.1095C21.2231 31.1689 21.1646 31.2876 21.1646 31.4063C21.1646 31.5844 21.2815 31.7625 21.4568 31.7625H23.9697C24.145 31.7625 24.2619 31.5844 24.2619 31.4063C24.2619 31.2876 24.2035 31.1689 24.0866 31.1095Z" fill="#EDEEF0" stroke="#5C5B5F" stroke-width="0.065598" stroke-miterlimit="10"/>
<path d="M28.3527 33.1874H4.97687V34.1967H28.3527V33.1874Z" fill="#EDEEF0" stroke="#5C5B5F" stroke-width="0.034135" stroke-miterlimit="10"/>
<path d="M57.8062 33.1874H34.4304V34.1967H57.8062V33.1874Z" fill="#EDEEF0" stroke="#5C5B5F" stroke-width="0.034135" stroke-miterlimit="10"/>
<path d="M26.7748 22.1447C26.7748 19.8887 28.5864 17.9889 30.8655 17.9889C33.1447 17.9889 34.9563 19.8293 34.9563 22.1447" stroke="#D8DADE" stroke-width="0.23" stroke-miterlimit="10"/>
<path d="M26.7164 16.0297H24.7294V17.3952H26.7164V16.0297Z" fill="#B0AFB5"/>
<path d="M37.4108 16.0297H35.3654V17.3952H37.4108V16.0297Z" fill="#B0AFB5"/>
<path d="M35.0148 16.6234H27.1254V16.9796H35.0148V16.6234Z" fill="#B0AFB5"/>
<path d="M33.6122 35.384H28.3527V36.2152H33.6122V35.384Z" fill="#7E7D82"/>
<path d="M33.6122 36.2152H28.3527V37.0464H33.6122V36.2152Z" fill="#7E7D82"/>
<path d="M27.1254 34.1967H23.6191V36.9276H27.1254V34.1967Z" fill="#413D3E"/>
<path d="M36.8848 34.256H33.3785V36.987H36.8848V34.256Z" fill="#504F51"/>
<path d="M37.6446 34.256H34.1382V36.987H37.6446V34.256Z" fill="#413D3E"/>
<path d="M5.79499 46.0111C4.97683 45.2987 4.80151 44.4082 4.80151 43.577C4.80151 43.0427 4.97683 42.0334 5.73655 41.321C6.32094 40.7866 7.08065 40.4304 8.30788 40.4304C8.83384 40.4304 9.12604 40.4898 9.47667 40.4898C9.76887 40.5492 10.0611 40.6085 10.2948 40.6085C10.4117 40.6085 10.4117 40.6679 10.4117 40.7273C10.4117 40.7866 10.4117 40.9054 10.3533 41.2022C10.3533 41.4991 10.3533 41.9147 10.3533 42.0928C10.3533 42.2115 10.3533 42.2709 10.2364 42.2709C10.1779 42.2709 10.1779 42.2115 10.1779 42.0928C10.1779 41.8553 10.0611 41.5584 9.88575 41.321C9.59355 41.0241 9.00916 40.7866 8.24944 40.7866C7.54817 40.7866 7.08065 40.9647 6.73002 41.321C6.14562 41.8553 5.9703 42.6271 5.9703 43.4582C5.9703 45.4174 7.43129 46.3673 8.54164 46.3673C9.24291 46.3673 9.71043 46.308 10.0026 45.8924C10.1195 45.7143 10.2364 45.4768 10.2948 45.3581C10.2948 45.2393 10.3533 45.18 10.4117 45.18C10.4701 45.18 10.4701 45.2393 10.4701 45.2987C10.4701 45.4174 10.3533 46.1299 10.2948 46.3673C10.2364 46.4861 10.2364 46.5454 10.0611 46.6048C9.71043 46.9017 9.0676 46.961 8.54164 46.961C7.48973 46.961 6.5547 46.6642 5.79499 46.0111Z" fill="black"/>
<path d="M11.522 43.6957C11.522 42.2709 12.4571 40.4898 14.8531 40.4898C16.84 40.4898 18.1257 41.6772 18.1257 43.577C18.1257 45.4768 16.84 46.9611 14.7946 46.9611C12.4571 46.9611 11.522 45.18 11.522 43.6957ZM16.9569 43.8739C16.9569 42.0334 15.905 40.9054 14.6193 40.9054C13.6843 40.9054 12.6324 41.4397 12.6324 43.4583C12.6324 45.18 13.5674 46.5455 15.0868 46.5455C15.6712 46.5455 16.9569 46.2486 16.9569 43.8739Z" fill="black"/>
<path d="M20.4633 45.7143C20.4633 46.3673 20.5802 46.5454 20.7555 46.6048C20.8724 46.6642 21.0477 46.6642 21.1646 46.6642C21.2814 46.6642 21.2814 46.6642 21.2814 46.7236C21.2814 46.7829 21.223 46.7829 21.1061 46.7829C20.5802 46.7829 20.2295 46.7829 20.1126 46.7829C20.0542 46.7829 19.6451 46.7829 19.236 46.7829C19.1192 46.7829 19.0607 46.7829 19.0607 46.7236C19.0607 46.6642 19.1192 46.6642 19.1776 46.6642C19.2945 46.6642 19.4114 46.6642 19.5282 46.6048C19.762 46.5454 19.762 46.308 19.762 45.5955L19.8204 40.7273C19.8204 40.5492 19.8204 40.4304 19.9373 40.4304C20.0542 40.4304 20.1126 40.5492 20.2295 40.6679C20.3464 40.7866 21.5736 42.0928 22.7424 43.2801C23.2684 43.8145 24.3787 45.0018 24.4956 45.1206H24.554V41.5584C24.554 41.0835 24.4956 40.9054 24.2618 40.846C24.145 40.7866 23.9696 40.7866 23.8528 40.7866C23.7359 40.7866 23.7359 40.7866 23.7359 40.7273C23.7359 40.6679 23.8528 40.6679 23.9696 40.6679C24.3787 40.6679 24.7878 40.6679 24.9631 40.6679C25.08 40.6679 25.3722 40.6679 25.7813 40.6679C25.8981 40.6679 25.9566 40.6679 25.9566 40.7273C25.9566 40.7866 25.8981 40.7866 25.8397 40.7866C25.7813 40.7866 25.7228 40.7866 25.606 40.7866C25.3722 40.846 25.3138 41.0241 25.3138 41.4991L25.1969 46.6642C25.1969 46.8423 25.1384 46.9017 25.08 46.9017C24.9631 46.9017 24.9047 46.7829 24.7878 46.7236C24.2618 46.2486 23.2684 45.18 22.3918 44.2894C21.5152 43.3989 20.6386 42.3896 20.4633 42.2115V45.7143Z" fill="black"/>
<path d="M32.7356 46.2486C32.7356 46.4861 32.7356 46.4861 32.6187 46.5455C32.0927 46.8423 31.2746 46.9017 30.6902 46.9017C28.7033 46.9017 26.9501 45.9518 26.9501 43.6957C26.9501 42.3896 27.5929 41.4397 28.3526 41.0241C29.1123 40.5492 29.872 40.4898 30.5149 40.4898C31.0993 40.4898 31.8006 40.6085 31.9174 40.6085C32.0927 40.6679 32.3849 40.6679 32.5603 40.7273C32.6771 40.7273 32.6771 40.7867 32.6771 40.846C32.6771 40.9648 32.6187 41.1429 32.6187 42.2115C32.6187 42.3303 32.6187 42.3896 32.5018 42.3896C32.4434 42.3896 32.4434 42.3303 32.4434 42.2709C32.4434 42.0928 32.3849 41.7959 32.1512 41.6178C31.9174 41.3803 31.2746 40.9648 30.3396 40.9648C29.872 40.9648 29.2877 41.0241 28.7617 41.4991C28.2942 41.8553 28.002 42.5084 28.002 43.5176C28.002 45.2987 29.1123 46.6048 30.8071 46.6048C31.0408 46.6048 31.2746 46.6048 31.5084 46.4861C31.6252 46.4267 31.6837 46.308 31.6837 46.1893V45.4175C31.6837 45.0019 31.6837 44.705 31.6837 44.4675C31.6837 44.1707 31.6252 44.052 31.333 43.9926C31.2746 43.9926 31.1577 43.9926 31.0408 43.9926C30.9824 43.9926 30.924 43.9926 30.924 43.9332C30.924 43.8739 30.9824 43.8739 31.0993 43.8739C31.5084 43.8739 32.0343 43.8739 32.2681 43.8739C32.5018 43.8739 32.9693 43.8739 33.2031 43.8739C33.32 43.8739 33.3784 43.8739 33.3784 43.9332C33.3784 43.9926 33.32 43.9926 33.2615 43.9926C33.2031 43.9926 33.1447 43.9926 33.0278 43.9926C32.794 44.052 32.7356 44.1707 32.7356 44.4675C32.7356 44.705 32.7356 45.0612 32.7356 45.4768V46.2486Z" fill="black"/>
<path d="M35.1901 42.9833C35.1901 41.7366 35.1901 41.4991 35.1901 41.2616C35.1901 40.9648 35.1316 40.846 34.8394 40.7866C34.781 40.7866 34.6641 40.7866 34.5472 40.7866C34.4304 40.7866 34.4304 40.7866 34.4304 40.7273C34.4304 40.6679 34.4888 40.6679 34.6057 40.6679C35.0148 40.6679 35.5407 40.6679 35.716 40.6679C36.0082 40.6679 36.5926 40.6679 36.8264 40.6679C37.3523 40.6679 37.8783 40.7273 38.2874 41.0241C38.5211 41.2022 38.8133 41.6178 38.8133 42.1521C38.8133 42.7458 38.5796 43.3395 37.7614 43.9926C38.4627 44.8831 39.0471 45.6549 39.5146 46.1299C39.9821 46.6048 40.2743 46.6642 40.3912 46.6642C40.5081 46.6642 40.5665 46.6642 40.6249 46.6642C40.6834 46.6642 40.7418 46.6642 40.7418 46.7236C40.7418 46.7829 40.6834 46.7829 40.5665 46.7829H39.8068C39.3393 46.7829 39.164 46.7236 38.9302 46.6048C38.5796 46.4267 38.2874 46.0111 37.8198 45.4174C37.4692 44.9425 37.1186 44.4082 37.0017 44.2894C36.9433 44.2301 36.8848 44.2301 36.8848 44.2301H36.1835C36.1251 44.2301 36.1251 44.2301 36.1251 44.2894V44.4082C36.1251 45.18 36.1251 45.833 36.1835 46.1892C36.1835 46.4267 36.242 46.6048 36.4757 46.6642C36.5926 46.6642 36.7679 46.7236 36.8848 46.7236C36.9433 46.7236 37.0017 46.7236 37.0017 46.7829C37.0017 46.8423 36.9433 46.8423 36.8264 46.8423C36.3589 46.8423 35.7745 46.8423 35.6576 46.8423C35.4823 46.8423 35.0148 46.8423 34.6641 46.8423C34.5472 46.8423 34.4888 46.8423 34.4888 46.7829C34.4888 46.7236 34.5472 46.7236 34.6057 46.7236C34.7226 46.7236 34.8394 46.7236 34.8979 46.6642C35.0732 46.6048 35.0732 46.4267 35.1316 46.1892C35.1901 45.833 35.1901 45.18 35.1901 44.4675V42.9833ZM36.1835 43.6364C36.1835 43.7551 36.1835 43.7551 36.242 43.7551C36.4173 43.8145 36.6511 43.8145 36.8264 43.8145C37.177 43.8145 37.2355 43.7551 37.4108 43.6957C37.6445 43.5176 37.8783 43.1614 37.8783 42.449C37.8783 41.2616 37.1186 40.9648 36.6511 40.9648C36.4757 40.9648 36.3004 40.9648 36.242 41.0241C36.1835 41.0241 36.1835 41.0835 36.1835 41.1429V43.6364Z" fill="black"/>
<path d="M41.5599 42.9833C41.5599 41.7365 41.5599 41.499 41.5599 41.2616C41.5599 40.9647 41.5015 40.846 41.2093 40.7866C41.1509 40.7866 41.034 40.7866 40.9171 40.7866C40.8002 40.7866 40.8002 40.7866 40.8002 40.7272C40.8002 40.6679 40.8587 40.6679 40.9756 40.6679C41.2093 40.6679 41.4431 40.6679 41.6184 40.6679C41.8521 40.6679 42.0275 40.6679 42.1443 40.6679C42.3781 40.6679 44.0144 40.6679 44.1897 40.6679C44.365 40.6679 44.4819 40.6085 44.5404 40.6085C44.5988 40.6085 44.6572 40.5491 44.6572 40.5491C44.7157 40.5491 44.7157 40.6085 44.7157 40.6085C44.7157 40.6679 44.6572 40.7866 44.6572 41.1428C44.6572 41.2022 44.6572 41.5584 44.5988 41.6771C44.5988 41.7365 44.5988 41.7959 44.5404 41.7959C44.4819 41.7959 44.4819 41.7365 44.4819 41.6771C44.4819 41.6178 44.4819 41.499 44.4235 41.3803C44.365 41.2616 44.3066 41.1428 43.8975 41.0835C43.7806 41.0835 42.9041 41.0241 42.7287 41.0241C42.6703 41.0241 42.6703 41.0241 42.6703 41.0835V43.1614C42.6703 43.2207 42.6703 43.2801 42.7287 43.2801C42.9041 43.2801 43.8391 43.2801 44.0144 43.2801C44.1897 43.2801 44.3066 43.2207 44.4235 43.1614C44.4819 43.102 44.5404 43.0426 44.5404 43.0426C44.5988 43.0426 44.5988 43.0426 44.5988 43.102C44.5988 43.1614 44.5404 43.2801 44.5404 43.6957C44.5404 43.8738 44.4819 44.1707 44.4819 44.23C44.4819 44.2894 44.4819 44.4081 44.4235 44.4081C44.365 44.4081 44.365 44.3488 44.365 44.3488C44.365 44.2894 44.365 44.1707 44.3066 44.0519C44.2482 43.8738 44.1313 43.7551 43.8391 43.7551C43.6638 43.7551 42.9041 43.7551 42.6703 43.7551C42.6119 43.7551 42.6119 43.8144 42.6119 43.8144V44.4675C42.6119 44.7643 42.6119 45.4768 42.6119 45.7143C42.6119 46.3079 42.7287 46.4267 43.6053 46.4267C43.8391 46.4267 44.1313 46.4267 44.365 46.3079C44.5988 46.1892 44.6572 46.0111 44.7157 45.7143C44.7157 45.5955 44.7741 45.5955 44.8326 45.5955C44.891 45.5955 44.891 45.6549 44.891 45.7143C44.891 45.8924 44.8326 46.4861 44.7741 46.6048C44.7157 46.8423 44.6572 46.8423 44.365 46.8423C43.7806 46.8423 43.3131 46.8423 42.9625 46.8423C42.6119 46.8423 42.3781 46.8423 42.1443 46.8423C42.0275 46.8423 41.8521 46.8423 41.6768 46.8423C41.5015 46.8423 41.2677 46.8423 41.0924 46.8423C40.9756 46.8423 40.9171 46.8423 40.9171 46.7829C40.9171 46.7235 40.9756 46.7235 41.034 46.7235C41.1509 46.7235 41.2677 46.7235 41.3262 46.6642C41.5015 46.6048 41.5015 46.4267 41.5599 46.1892C41.6184 45.833 41.6184 45.1799 41.6184 44.4675V42.9833H41.5599Z" fill="black"/>
<path d="M46.4688 46.7236C46.352 46.6642 46.2935 46.6048 46.2935 46.4267C46.2935 45.9518 46.352 45.4768 46.352 45.3581C46.352 45.2393 46.4104 45.1206 46.4688 45.1206C46.5273 45.1206 46.5273 45.18 46.5273 45.2393C46.5273 45.3581 46.5857 45.5362 46.5857 45.6549C46.761 46.2486 47.2285 46.4861 47.7545 46.4861C48.4558 46.4861 48.8649 46.0111 48.8649 45.5362C48.8649 45.1206 48.748 44.7644 48.0467 44.23L47.6961 43.9332C46.8195 43.2208 46.5273 42.6271 46.5273 41.974C46.5273 41.0835 47.287 40.4304 48.3973 40.4304C48.9233 40.4304 49.2739 40.4898 49.4493 40.5492C49.5077 40.5492 49.5661 40.6085 49.5661 40.6679C49.5661 40.7866 49.5077 41.0241 49.5077 41.6772C49.5077 41.8553 49.5077 41.9146 49.3908 41.9146C49.3324 41.9146 49.3324 41.8553 49.3324 41.7959C49.3324 41.7365 49.2739 41.4397 49.0986 41.2616C48.9817 41.0835 48.748 40.846 48.222 40.846C47.6376 40.846 47.287 41.2022 47.287 41.6772C47.287 42.0334 47.4623 42.3302 48.1636 42.8646L48.3973 43.0427C49.3908 43.8145 49.7414 44.3488 49.7414 45.1206C49.7414 45.5955 49.5661 46.1892 48.9817 46.5454C48.5727 46.7829 48.1051 46.9017 47.6961 46.9017C47.1701 46.961 46.761 46.9017 46.4688 46.7236Z" fill="black"/>
<path d="M50.9687 43.6957C50.9687 42.2709 51.9037 40.4898 54.2997 40.4898C56.2867 40.4898 57.5724 41.6772 57.5724 43.577C57.5724 45.4768 56.2867 46.9611 54.2413 46.9611C51.9037 46.9611 50.9687 45.18 50.9687 43.6957ZM56.4036 43.8739C56.4036 42.0334 55.3517 40.9054 54.066 40.9054C53.131 40.9054 52.079 41.4397 52.079 43.4583C52.079 45.18 53.0141 46.5455 54.5335 46.5455C55.1179 46.5455 56.4036 46.2486 56.4036 43.8739Z" fill="black"/>
<path d="M6.0872 56.2227C6.0872 55.0353 6.0872 54.7978 6.0872 54.5603C6.0872 54.2635 5.97032 54.2041 5.73656 54.1447C5.67812 54.1447 5.56124 54.1447 5.38592 54.1447C5.32748 54.1447 5.26904 54.1447 5.26904 54.0854C5.26904 54.026 5.32748 54.026 5.44436 54.026C5.85344 54.026 6.37939 54.026 6.55471 54.026C6.84691 54.026 7.54818 54.026 7.84038 54.026C8.36634 54.026 8.95073 54.0854 9.35981 54.3822C9.59356 54.5603 9.9442 54.9165 9.9442 55.4509C9.9442 56.0446 9.59356 56.5789 8.83385 57.2319C9.53513 58.1225 10.1195 58.8349 10.587 59.3692C11.0546 59.8442 11.3467 59.8442 11.4636 59.9036C11.5221 59.9036 11.5805 59.9036 11.6389 59.9036C11.6974 59.9036 11.7558 59.9629 11.7558 59.9629C11.7558 60.0223 11.6974 60.0223 11.5805 60.0223H10.8208C10.3533 60.0223 10.178 59.9629 9.9442 59.8442C9.59356 59.6661 9.30137 59.3099 8.83385 58.6568C8.48321 58.2412 8.19102 57.7069 8.07414 57.5882C8.0157 57.5288 7.95726 57.5288 7.89882 57.5288H7.19755C7.13911 57.5288 7.13911 57.5288 7.13911 57.5882V57.7069C7.13911 58.4193 7.13911 59.0724 7.19755 59.3692C7.19755 59.6067 7.25599 59.7254 7.48974 59.7848C7.60662 59.7848 7.78194 59.7848 7.89882 59.7848C7.95726 59.7848 8.0157 59.8442 8.0157 59.8442C8.0157 59.9036 7.95726 59.9036 7.84038 59.9036C7.37286 59.9036 6.73003 59.9036 6.55471 59.9036C6.37939 59.9036 5.91188 59.9036 5.56124 59.9036C5.44436 59.9036 5.38592 59.9036 5.38592 59.8442C5.38592 59.7848 5.38592 59.7848 5.5028 59.7848C5.61968 59.7848 5.73656 59.7848 5.795 59.7848C5.97032 59.7254 6.02876 59.6067 6.02876 59.3692C6.0872 59.013 6.0872 58.4193 6.0872 57.7069V56.2227ZM7.13911 56.8757C7.13911 56.9351 7.13911 56.9945 7.19755 56.9945C7.37286 57.0538 7.60662 57.0538 7.84038 57.0538C8.19102 57.0538 8.24946 57.0538 8.42478 56.9351C8.65853 56.757 8.95073 56.4008 8.95073 55.7477C8.95073 54.6197 8.19102 54.3228 7.7235 54.3228C7.54818 54.3228 7.31442 54.3228 7.25599 54.3228C7.19755 54.3228 7.19755 54.3822 7.19755 54.4416V56.8757H7.13911Z" fill="black"/>
<path d="M12.6908 56.2226C12.6908 55.0352 12.6908 54.7978 12.6908 54.5603C12.6908 54.2634 12.574 54.2041 12.3402 54.1447C12.2818 54.1447 12.1649 54.1447 11.9896 54.1447C11.9311 54.1447 11.8727 54.1447 11.8727 54.0853C11.8727 54.026 11.9311 54.026 12.048 54.026C12.4571 54.026 12.983 54.026 13.2168 54.026C13.4505 54.026 15.2622 54.026 15.4375 54.026C15.6128 54.026 15.7297 53.9666 15.7881 53.9666C15.8466 53.9666 15.905 53.9072 15.905 53.9072C15.9634 53.9072 15.9634 53.9666 15.9634 53.9666C15.9634 54.026 15.905 54.1447 15.905 54.5009C15.905 54.5603 15.905 54.9165 15.8466 55.0352C15.8466 55.0946 15.8466 55.154 15.7297 55.154C15.6712 55.154 15.6712 55.0946 15.6712 55.0352C15.6712 54.9759 15.6712 54.8571 15.6128 54.7384C15.5544 54.6197 15.4959 54.5009 15.0869 54.4415C14.97 54.4415 13.9765 54.3822 13.8012 54.3822C13.7427 54.3822 13.7427 54.3822 13.7427 54.4415V56.4007C13.7427 56.4601 13.7427 56.4601 13.8012 56.4601C13.9765 56.4601 15.0284 56.4601 15.2037 56.4601C15.379 56.4601 15.4959 56.4007 15.6128 56.3414C15.6712 56.282 15.7297 56.2226 15.7297 56.2226C15.7881 56.2226 15.7881 56.282 15.7881 56.282C15.7881 56.282 15.7881 56.4601 15.7297 56.8757C15.7297 57.0538 15.6712 57.3506 15.6712 57.41C15.6712 57.4694 15.6712 57.5881 15.6128 57.5881C15.5544 57.6475 15.5544 57.5881 15.5544 57.5881C15.5544 57.5287 15.5544 57.41 15.5544 57.2913C15.4959 57.1132 15.379 56.9944 15.0869 56.9944C14.9115 56.9944 14.0349 56.9351 13.8012 56.9351C13.7427 56.9351 13.7427 56.9944 13.7427 56.9944V57.6475C13.7427 57.9443 13.7427 58.5974 13.7427 58.8349C13.7427 59.3692 14.0349 59.4879 14.8531 59.4879C15.0869 59.4879 15.379 59.4879 15.6128 59.3692C15.7881 59.2505 15.905 59.1317 15.9634 58.7755C15.9634 58.7161 16.0219 58.6568 16.0803 58.6568C16.1388 58.6568 16.1388 58.7755 16.1388 58.8349C16.1388 59.013 16.0803 59.5473 16.0219 59.7254C15.9634 59.9035 15.905 59.9035 15.6128 59.9035C15.0284 59.9035 14.5025 59.9035 14.1518 59.9035C13.7427 59.9035 13.4505 59.9035 13.2168 59.9035C13.0999 59.9035 12.9246 59.9035 12.7493 59.9035C12.574 59.9035 12.3402 59.9035 12.1649 59.9035C12.048 59.9035 11.9896 59.9035 11.9896 59.8441C11.9896 59.7848 11.9896 59.7848 12.1064 59.7848C12.2233 59.7848 12.3402 59.7848 12.3986 59.7848C12.574 59.7254 12.6324 59.6067 12.6324 59.3692C12.6908 59.013 12.6908 58.4193 12.6908 57.7069V56.2226Z" fill="black"/>
<path d="M18.0673 56.2227C18.0673 55.0353 18.0673 54.7978 18.0673 54.5603C18.0673 54.2635 17.9504 54.2041 17.7167 54.1447C17.6582 54.1447 17.5413 54.1447 17.366 54.1447C17.3076 54.1447 17.2491 54.1447 17.2491 54.0854C17.2491 54.026 17.3076 54.026 17.4245 54.026C17.8335 54.026 18.3595 54.026 18.5933 54.026C18.9439 54.026 19.5867 54.026 19.9374 54.026C20.9308 54.026 21.3399 54.3822 21.4568 54.501C21.6321 54.6791 21.8659 55.0353 21.8659 55.4509C21.8659 56.5789 20.9893 57.3507 19.8205 57.3507C19.762 57.3507 19.6452 57.3507 19.5867 57.3507C19.5283 57.3507 19.4698 57.3507 19.4698 57.2913C19.4698 57.2319 19.5867 57.1726 19.762 57.1726C20.2296 57.1726 20.8724 56.6976 20.8724 55.8664C20.8724 55.629 20.8724 55.0946 20.4049 54.6791C20.1127 54.4416 19.762 54.3822 19.5867 54.3822C19.4698 54.3822 19.2945 54.3822 19.2361 54.4416C19.1776 54.4416 19.1776 54.501 19.1776 54.6197V57.7663C19.1776 58.4787 19.1776 59.1318 19.2361 59.488C19.2361 59.7254 19.2945 59.8442 19.5283 59.9036C19.6452 59.9036 19.8205 59.9036 19.9374 59.9036C20.0542 59.9036 20.0542 59.9629 20.0542 59.9629C20.0542 60.0223 19.9958 60.0223 19.8789 60.0223C19.353 60.0223 18.7686 60.0223 18.5348 60.0223C18.3595 60.0223 17.8335 60.0223 17.5413 60.0223C17.4245 60.0223 17.366 60.0223 17.366 59.9629C17.366 59.9036 17.366 59.9036 17.4829 59.9036C17.5998 59.9036 17.7167 59.9036 17.7751 59.9036C17.9504 59.8442 18.0089 59.7254 18.0089 59.488C18.0673 59.1318 18.0673 58.5381 18.0673 57.8256V56.2227Z" fill="black"/>
<path d="M23.4437 56.2226C23.4437 55.0352 23.4437 54.7978 23.4437 54.5603C23.4437 54.2634 23.3269 54.2041 23.0931 54.1447C23.0347 54.1447 22.9178 54.1447 22.8009 54.1447C22.684 54.1447 22.684 54.1447 22.684 54.0853C22.684 54.026 22.7425 54.026 22.8593 54.026C23.2684 54.026 23.8528 54.026 24.0866 54.026C24.2619 54.026 24.8463 54.026 25.1385 54.026C25.2554 54.026 25.3138 54.026 25.3138 54.0853C25.3138 54.1447 25.2554 54.1447 25.1969 54.1447C25.08 54.1447 25.08 54.1447 24.9632 54.1447C24.7294 54.2041 24.671 54.3228 24.671 54.5603C24.671 54.7978 24.671 55.0352 24.671 56.2226V57.3506C24.671 58.4787 24.9047 58.9536 25.3138 59.2505C25.6644 59.5473 26.0735 59.5473 26.3073 59.5473C26.6579 59.5473 27.067 59.4286 27.4176 59.1317C27.8851 58.7161 27.8851 58.0037 27.8851 57.1725V56.1633C27.8851 54.9759 27.8851 54.7384 27.8851 54.5009C27.8851 54.2041 27.8267 54.1447 27.5345 54.0853C27.4761 54.0853 27.3592 54.0853 27.2423 54.0853C27.1254 54.0853 27.1254 54.0853 27.1254 54.026C27.1254 53.9666 27.1839 53.9666 27.3007 53.9666C27.7098 53.9666 28.2358 53.9666 28.2942 53.9666C28.4111 53.9666 28.937 53.9666 29.2292 53.9666C29.3461 53.9666 29.4046 53.9666 29.4046 54.026C29.4046 54.0853 29.3461 54.0853 29.2877 54.0853C29.1708 54.0853 29.1708 54.0853 29.0539 54.0853C28.8202 54.1447 28.7617 54.2634 28.7617 54.5009C28.7617 54.7384 28.7617 54.9759 28.7617 56.1633V56.9944C28.7617 57.885 28.6448 58.8349 28.002 59.3692C27.4176 59.8442 26.8332 59.9629 26.3073 59.9629C25.8982 59.9629 25.0216 59.9629 24.4372 59.4286C24.0281 59.0724 23.6775 58.4787 23.6775 57.3506V56.2226H23.4437ZM27.4761 52.423C27.5345 52.5417 27.4761 52.5417 27.4176 52.5417C27.3592 52.5417 27.3007 52.5417 27.1254 52.5417C26.5995 52.6011 25.8982 52.898 25.5476 53.0761C25.4891 53.1354 25.4307 53.1354 25.3722 53.1354C25.3722 53.1354 25.3138 53.1354 25.3138 53.0761C25.3138 53.0167 25.3722 53.0167 25.3722 52.9573C25.7229 52.6011 26.7163 51.8887 26.8332 51.7699C26.9501 51.7106 27.0085 51.7106 27.0085 51.7106C27.067 51.7106 27.067 51.7106 27.1254 51.8293C27.3007 52.0074 27.3592 52.1855 27.4761 52.423Z" fill="black"/>
<path d="M30.8655 56.2227C30.8655 55.0353 30.8655 54.7978 30.8655 54.5603C30.8655 54.2635 30.7486 54.2041 30.5149 54.1447C30.4564 54.1447 30.3396 54.1447 30.1642 54.1447C30.1058 54.1447 30.0474 54.1447 30.0474 54.0854C30.0474 54.026 30.1058 54.026 30.2227 54.026C30.6318 54.026 31.1577 54.026 31.333 54.026C31.7421 54.026 32.2681 54.026 32.5603 54.026C34.0212 54.026 34.255 54.7978 34.255 55.2134C34.255 55.8071 33.7875 56.282 33.32 56.5789C33.9628 56.8164 34.781 57.3507 34.781 58.3006C34.781 59.1318 34.1381 60.0223 32.6187 60.0223C32.5018 60.0223 32.2681 60.0223 31.9759 60.0223C31.6837 60.0223 31.3915 60.0223 31.2746 60.0223C31.1577 60.0223 30.9824 60.0223 30.8071 60.0223C30.6318 60.0223 30.398 60.0223 30.2227 60.0223C30.1058 60.0223 30.0474 60.0223 30.0474 59.9629C30.0474 59.9036 30.0474 59.9036 30.1642 59.9036C30.2811 59.9036 30.398 59.9036 30.4564 59.9036C30.6318 59.8442 30.6902 59.7254 30.6902 59.488C30.7486 59.1318 30.7486 58.5381 30.7486 57.8256V56.2227H30.8655ZM31.9174 56.3414C31.9174 56.4008 31.9174 56.4008 31.9759 56.4008C32.0343 56.4008 32.1512 56.4008 32.3265 56.4008C32.6187 56.4008 32.794 56.4008 32.9693 56.282C33.2031 56.1039 33.32 55.8071 33.32 55.4509C33.32 54.9165 33.0278 54.2635 32.3265 54.2635C32.2096 54.2635 32.0343 54.2635 31.9759 54.2635C31.9174 54.2635 31.9174 54.3228 31.9174 54.3822V56.3414ZM31.9174 58.7162C31.9174 59.2505 31.9174 59.3692 32.2096 59.488C32.4434 59.5473 32.6187 59.6067 32.794 59.6067C33.2031 59.6067 33.7875 59.3692 33.7875 58.4787C33.7875 58.1225 33.6122 57.4694 33.0278 57.0538C32.8525 56.9351 32.6187 56.8757 32.3265 56.8757H31.9759C31.9759 56.8757 31.9174 56.8757 31.9174 56.9351V58.7162Z" fill="black"/>
<path d="M37.7614 57.6475C37.7614 58.6568 37.7614 59.1911 37.9367 59.3098C38.0536 59.4286 38.4042 59.4879 38.9886 59.4879C39.3977 59.4879 39.7483 59.4879 39.9236 59.2505C40.0405 59.1317 40.099 58.8943 40.099 58.7755C40.099 58.7161 40.099 58.6568 40.2158 58.6568C40.2743 58.6568 40.2743 58.7161 40.2743 58.8349C40.2743 58.9536 40.2158 59.4879 40.1574 59.7254C40.099 59.9035 40.0405 59.9629 39.6314 59.9629C39.0471 59.9629 38.5795 59.9629 38.1705 59.9629C37.7614 59.9629 37.4108 59.9629 37.1186 59.9629C37.0017 59.9629 36.8264 59.9629 36.651 59.9629C36.4757 59.9629 36.242 59.9629 36.0666 59.9629C35.9498 59.9629 35.8913 59.9629 35.8913 59.9035C35.8913 59.8442 35.8913 59.8442 36.0082 59.8442C36.1251 59.8442 36.242 59.8442 36.3004 59.8442C36.4757 59.7848 36.5342 59.6661 36.5342 59.4286C36.5926 59.0724 36.5926 58.4787 36.5926 57.7662V56.3414C36.5926 55.154 36.5926 54.9165 36.5926 54.679C36.5926 54.3822 36.4757 54.3228 36.242 54.2635C36.1835 54.2635 36.0666 54.2635 35.9498 54.2635C35.8329 54.2635 35.8329 54.2635 35.8329 54.2041C35.8329 54.1447 35.8913 54.1447 36.0082 54.1447C36.3588 54.1447 36.8848 54.1447 37.1186 54.1447C37.2939 54.1447 37.9951 54.1447 38.2873 54.1447C38.4042 54.1447 38.4627 54.1447 38.4627 54.2041C38.4627 54.2635 38.4042 54.2635 38.2873 54.2635C38.1705 54.2635 38.0536 54.2635 37.9951 54.2635C37.7614 54.3228 37.7029 54.4416 37.7029 54.679C37.7029 54.9165 37.7029 55.154 37.7029 56.3414V57.6475H37.7614Z" fill="black"/>
<path d="M42.0274 56.2226C42.0274 55.0352 42.0274 54.7978 42.0274 54.5603C42.0274 54.2634 41.9106 54.2041 41.7353 54.1447C41.6184 54.1447 41.5599 54.0853 41.4431 54.0853C41.3846 54.0853 41.3262 54.0853 41.3262 53.9666C41.3262 53.9072 41.3846 53.9072 41.5015 53.9072C41.7937 53.9072 42.3781 53.9072 42.6118 53.9072C42.7872 53.9072 43.3131 53.9072 43.6638 53.9072C43.7806 53.9072 43.8391 53.9072 43.8391 53.9666C43.8391 54.026 43.7806 54.0853 43.7222 54.0853C43.6638 54.0853 43.5469 54.0853 43.4884 54.0853C43.2547 54.1447 43.1962 54.2634 43.1962 54.5009C43.1962 54.7384 43.1962 54.9759 43.1962 56.1633V57.5881C43.1962 58.3599 43.1962 59.013 43.2547 59.3098C43.2547 59.5473 43.3131 59.666 43.5469 59.666C43.6638 59.666 43.8391 59.666 43.9559 59.666C44.0728 59.666 44.0728 59.7254 44.0728 59.7254C44.0728 59.7848 44.0144 59.7848 43.8975 59.7848C43.3716 59.7848 42.7872 59.7848 42.6118 59.7848C42.4365 59.7848 41.8521 59.7848 41.5599 59.7848C41.4431 59.7848 41.3846 59.7848 41.3846 59.7254C41.3846 59.666 41.3846 59.666 41.5015 59.666C41.6184 59.666 41.7353 59.666 41.7937 59.666C41.969 59.6067 42.0274 59.4879 42.0274 59.3098C42.0859 58.9536 42.0859 58.3599 42.0859 57.5881V56.2226H42.0274Z" fill="black"/>
<path d="M46.0598 59.1911C45.2417 58.538 45.0663 57.5881 45.0663 56.8757C45.0663 56.3413 45.2417 55.3914 46.0014 54.679C46.5858 54.1447 47.3455 53.8478 48.5727 53.8478C49.0987 53.8478 49.3909 53.9072 49.7415 53.9072C50.0337 53.9666 50.3259 54.0259 50.5597 54.0259C50.6765 54.0259 50.6765 54.0853 50.6765 54.1447C50.6765 54.2041 50.6765 54.3228 50.6181 54.5603C50.6181 54.7977 50.6181 55.2727 50.6181 55.3914C50.6181 55.5102 50.5597 55.5695 50.5012 55.5695C50.4428 55.5695 50.4428 55.5102 50.4428 55.3914C50.4428 55.154 50.3259 54.8571 50.1506 54.679C49.8584 54.3822 49.3324 54.2041 48.5727 54.2041C47.8714 54.2041 47.4039 54.3228 47.0533 54.679C46.4689 55.2133 46.2936 55.9851 46.2936 56.7569C46.2936 58.6567 47.7546 59.5473 48.8065 59.5473C49.5077 59.5473 49.9168 59.4879 50.2675 59.1317C50.3843 58.9536 50.5012 58.7755 50.5597 58.5974C50.5597 58.4786 50.6181 58.4193 50.6765 58.4193C50.735 58.4193 50.7934 58.4786 50.7934 58.538C50.7934 58.6567 50.6765 59.3098 50.6181 59.6067C50.5597 59.7254 50.5597 59.7848 50.3843 59.8441C50.0337 59.9629 49.4493 60.0222 48.9234 60.0222C47.7546 60.0222 46.8195 59.7848 46.0598 59.1911Z" fill="black"/>
<path d="M53.0141 57.9444C52.9557 57.9444 52.9557 57.9444 52.9557 58.0037L52.5466 59.0724C52.4881 59.2505 52.4297 59.488 52.4297 59.5473C52.4297 59.6661 52.4881 59.7848 52.7803 59.7848H52.8972C53.0141 59.7848 53.0141 59.8442 53.0141 59.8442C53.0141 59.9035 52.9557 59.9035 52.8972 59.9035C52.605 59.9035 52.2544 59.9035 52.0206 59.9035C51.9622 59.9035 51.4947 59.9035 51.0856 59.9035C50.9687 59.9035 50.9103 59.9035 50.9103 59.8442C50.9103 59.7848 50.9103 59.7848 51.0272 59.7848C51.0856 59.7848 51.2025 59.7848 51.2609 59.7848C51.6116 59.7254 51.7869 59.488 51.9037 59.0724L54.0076 54.0854C54.1245 53.8479 54.1829 53.7885 54.2413 53.7885C54.3582 53.7885 54.4166 53.8479 54.4751 54.026C54.6504 54.4416 55.9945 57.7069 56.5205 58.8943C56.8127 59.6067 57.0464 59.7254 57.2217 59.7254C57.3386 59.7254 57.4555 59.7254 57.5139 59.7254C57.5724 59.7254 57.6308 59.7254 57.6308 59.7848C57.6308 59.8442 57.5724 59.8442 57.2802 59.8442C56.988 59.8442 56.4036 59.8442 55.7023 59.8442C55.527 59.8442 55.4686 59.8442 55.4686 59.7848C55.4686 59.7254 55.4686 59.7254 55.5854 59.7254C55.6439 59.7254 55.7023 59.6661 55.6439 59.5473L55.001 57.9444C55.001 57.885 54.9426 57.885 54.9426 57.885H53.0141V57.9444ZM54.7673 57.5288C54.8257 57.5288 54.8257 57.4694 54.7673 57.5288L54.066 55.4509C54.066 55.4509 54.066 55.3915 54.0076 55.3915L53.9491 55.4509L53.1894 57.4694C53.1894 57.5288 53.1894 57.5288 53.1894 57.5288H54.7673Z" fill="black"/>
<path d="M28.9955 47.6141V50.3451C28.9955 50.5232 28.9955 50.7606 28.9955 50.9388H28.6448V50.5232C28.5279 50.7606 28.2357 50.9981 27.8851 50.9981C27.3591 50.9981 26.9501 50.5232 26.9501 49.8701C26.9501 49.0983 27.4176 48.6234 27.9435 48.6234C28.2942 48.6234 28.5279 48.8015 28.6448 48.9796V47.6141H28.9955ZM28.5864 49.6326C28.5864 49.5733 28.5864 49.5139 28.5864 49.4545C28.5279 49.217 28.2942 48.9796 28.002 48.9796C27.5929 48.9796 27.3592 49.3358 27.3592 49.8701C27.3592 50.3451 27.5929 50.7013 28.002 50.7013C28.2942 50.7013 28.5279 50.5232 28.5864 50.2263C28.5864 50.167 28.5864 50.1076 28.5864 50.0482V49.6326Z" fill="#5C5B5F"/>
<path d="M29.872 49.9295C29.872 50.4638 30.2227 50.7013 30.6317 50.7013C30.9239 50.7013 31.0993 50.6419 31.2746 50.5825L31.333 50.8794C31.2161 50.9387 30.9239 50.9981 30.5733 50.9981C29.872 50.9981 29.463 50.5232 29.463 49.8701C29.463 49.1577 29.872 48.6234 30.5149 48.6234C31.2746 48.6234 31.4499 49.2764 31.4499 49.692C31.4499 49.7514 31.4499 49.8701 31.4499 49.8701H29.872V49.9295ZM31.0993 49.6326C31.0993 49.3951 30.9824 48.9796 30.5149 48.9796C30.1058 48.9796 29.9305 49.3358 29.872 49.6326H31.0993Z" fill="#5C5B5F"/>
<path d="M32.9694 47.6141H33.3784V50.9388H32.9694V47.6141Z" fill="#5C5B5F"/>
<path d="M35.3069 50.9981L35.2485 50.7013C35.1316 50.8794 34.8979 51.0575 34.5472 51.0575C34.0797 51.0575 33.8459 50.7607 33.8459 50.4044C33.8459 49.8701 34.3135 49.5733 35.1901 49.5733V49.5139C35.1901 49.3358 35.1316 48.9796 34.6641 48.9796C34.4303 48.9796 34.255 49.039 34.0797 49.1577L33.9628 48.8608C34.1381 48.7421 34.4303 48.6827 34.7225 48.6827C35.4238 48.6827 35.5991 49.1577 35.5991 49.6326V50.4638C35.5991 50.6419 35.5991 50.8794 35.6576 50.9981H35.3069ZM35.2485 49.8108C34.781 49.8108 34.3135 49.8701 34.3135 50.3451C34.3135 50.6419 34.4888 50.7607 34.7225 50.7607C35.0147 50.7607 35.1901 50.5826 35.2485 50.4044C35.2485 50.3451 35.2485 50.2857 35.2485 50.2857V49.8108Z" fill="#5C5B5F"/>
<path d="M5.15216 49.7514H25.4307" stroke="#E0040B" stroke-width="0.9815" stroke-miterlimit="10"/>
<path d="M36.8848 50.0482H57.6308" stroke="#E0040B" stroke-width="0.993" stroke-miterlimit="10"/>
<path d="M41.969 9.02413C41.969 8.19296 41.969 8.01485 41.969 7.89611C41.969 7.71801 41.9106 7.59927 41.7353 7.59927C41.6768 7.59927 41.6184 7.59927 41.5015 7.59927C41.4431 7.59927 41.3846 7.59927 41.3846 7.5399C41.3846 7.48053 41.4431 7.48053 41.5015 7.48053C41.7937 7.48053 42.1444 7.48053 42.2612 7.48053C42.495 7.48053 42.7872 7.48053 43.021 7.48053C43.6638 7.48053 43.956 7.71801 44.0144 7.77738C44.1313 7.89611 44.3066 8.13359 44.3066 8.43044C44.3066 9.20224 43.7222 9.73656 42.9625 9.73656C42.9625 9.73656 42.9041 9.73656 42.8456 9.73656C42.7872 9.73656 42.7872 9.73656 42.7872 9.67719C42.7872 9.61782 42.8456 9.61782 42.9625 9.61782C43.2547 9.61782 43.6638 9.26161 43.6638 8.72728C43.6638 8.54918 43.6638 8.19296 43.3716 7.89611C43.1963 7.71801 42.9625 7.65864 42.8456 7.65864C42.7872 7.65864 42.6703 7.65864 42.6119 7.65864C42.6119 7.65864 42.5534 7.71801 42.5534 7.77738V9.97404C42.5534 10.449 42.5534 10.9239 42.5534 11.1614C42.5534 11.3395 42.6119 11.4583 42.7872 11.4583C42.8456 11.4583 42.9625 11.4583 43.0794 11.4583C43.1378 11.4583 43.1378 11.4583 43.1378 11.5176C43.1378 11.577 43.0794 11.577 43.021 11.577C42.6703 11.577 42.3197 11.577 42.2028 11.577C42.0859 11.577 41.7353 11.577 41.5015 11.577C41.4431 11.577 41.3846 11.577 41.3846 11.5176C41.3846 11.5176 41.3846 11.4583 41.4431 11.4583C41.5015 11.4583 41.56 11.4583 41.6184 11.4583C41.7353 11.4583 41.7353 11.3395 41.7937 11.1614C41.7937 10.9239 41.7937 10.5084 41.7937 9.97404V9.02413H41.969Z" fill="#E0040B"/>
<path d="M45.4754 9.38038C45.4754 8.66795 45.4754 8.54922 45.4754 8.37111C45.4754 8.193 45.417 8.193 45.3001 8.13363C45.2417 8.13363 45.1832 8.13363 45.1248 8.13363C45.0663 8.13363 45.0663 8.13363 45.0663 8.07426C45.0663 8.01489 45.1248 8.01489 45.1832 8.01489C45.417 8.01489 45.7092 8.01489 45.8845 8.01489C46.0598 8.01489 47.0533 8.01489 47.1702 8.01489C47.2286 8.01489 47.3455 8.01489 47.3455 8.01489H47.4039C47.4039 8.01489 47.4624 8.01489 47.4624 8.07426C47.4624 8.13363 47.4624 8.13363 47.4039 8.37111C47.4039 8.43048 47.4039 8.60858 47.4039 8.66795C47.4039 8.66795 47.4039 8.72732 47.3455 8.72732C47.287 8.72732 47.287 8.72732 47.287 8.66795C47.287 8.60858 47.287 8.54922 47.2286 8.48985C47.1702 8.43048 47.1702 8.37111 46.9364 8.31174C46.878 8.31174 46.2936 8.31174 46.1767 8.31174C46.1767 8.31174 46.1183 8.31174 46.1183 8.37111V9.49912C46.1183 9.49912 46.1183 9.55849 46.1767 9.55849C46.2936 9.55849 46.878 9.55849 46.9948 9.55849C47.1117 9.55849 47.1702 9.55849 47.2286 9.49912C47.287 9.43975 47.287 9.43975 47.287 9.43975C47.287 9.43975 47.3455 9.43975 47.3455 9.49912C47.3455 9.49912 47.3455 9.61786 47.287 9.85534C47.287 9.97408 47.287 10.1522 47.287 10.1522C47.287 10.2116 47.287 10.2709 47.2286 10.2709C47.1702 10.2709 47.1702 10.2709 47.1702 10.2116C47.1702 10.1522 47.1702 10.0928 47.1702 10.0334C47.1702 9.91471 47.1117 9.85534 46.878 9.85534C46.8195 9.85534 46.2351 9.85534 46.1183 9.85534C46.1183 9.85534 46.1183 9.85534 46.1183 9.91471V10.2709C46.1183 10.449 46.1183 10.8052 46.1183 10.9834C46.1183 11.2802 46.2936 11.3989 46.7611 11.3989C46.878 11.3989 47.1117 11.3989 47.2286 11.3396C47.3455 11.2802 47.4039 11.1615 47.4039 10.9834C47.4039 10.924 47.4039 10.924 47.4624 10.924C47.5208 10.924 47.5208 10.9834 47.5208 11.0427C47.5208 11.1615 47.4624 11.4583 47.4624 11.577C47.4039 11.6958 47.4039 11.6958 47.2286 11.6958C46.878 11.6958 46.5858 11.6958 46.352 11.6958C46.1183 11.6958 45.9429 11.6958 45.8261 11.6958C45.7676 11.6958 45.6507 11.6958 45.5339 11.6958C45.417 11.6958 45.3001 11.6958 45.1832 11.6958C45.1248 11.6958 45.0663 11.6958 45.0663 11.6364C45.0663 11.6364 45.0663 11.577 45.1248 11.577C45.1832 11.577 45.2417 11.577 45.3001 11.577C45.417 11.577 45.417 11.4583 45.417 11.3396C45.417 11.1615 45.417 10.8052 45.417 10.3303V9.38038H45.4754Z" fill="#E0040B"/>
<path d="M48.5727 9.38038C48.5727 8.66795 48.5727 8.54922 48.5727 8.37111C48.5727 8.193 48.5143 8.193 48.3974 8.13363C48.339 8.13363 48.2805 8.13363 48.2221 8.13363C48.1636 8.13363 48.1636 8.13363 48.1636 8.07426C48.1636 8.01489 48.2221 8.01489 48.2805 8.01489C48.5143 8.01489 48.8065 8.01489 48.9233 8.01489C49.0987 8.01489 49.5077 8.01489 49.6831 8.01489C49.9753 8.01489 50.3259 8.01489 50.5597 8.193C50.6765 8.31174 50.9103 8.54922 50.9103 8.84606C50.9103 9.20228 50.735 9.49912 50.2675 9.85534C50.6765 10.3897 51.0272 10.8052 51.3194 11.1021C51.6116 11.3989 51.7284 11.3989 51.8453 11.3989C51.9038 11.3989 51.9038 11.3989 51.9622 11.3989C52.0206 11.3989 52.0206 11.3989 52.0206 11.4583C52.0206 11.5177 51.9622 11.5177 51.9038 11.5177H51.4362C51.144 11.5177 51.0272 11.5177 50.9103 11.3989C50.735 11.2802 50.5012 11.1021 50.2675 10.7459C50.0921 10.5084 49.8584 10.2116 49.7999 10.0928L49.7415 10.0334H49.3324C49.3324 10.0334 49.274 10.0334 49.274 10.0928V10.1522C49.274 10.5678 49.274 10.924 49.274 11.1615C49.274 11.2802 49.3324 11.3989 49.4493 11.3989C49.5077 11.3989 49.6246 11.3989 49.6831 11.3989C49.7415 11.3989 49.7415 11.3989 49.7415 11.4583C49.7415 11.5177 49.6831 11.5177 49.6246 11.5177C49.3324 11.5177 48.9818 11.5177 48.8649 11.5177C48.748 11.5177 48.4558 11.5177 48.2805 11.5177C48.2221 11.5177 48.1636 11.5177 48.1636 11.4583C48.1636 11.4583 48.1636 11.3989 48.2221 11.3989C48.2805 11.3989 48.339 11.3989 48.3974 11.3989C48.5143 11.3989 48.5143 11.2802 48.5143 11.1615C48.5143 10.9834 48.5143 10.6271 48.5143 10.1522V9.38038H48.5727ZM49.1571 9.7366C49.1571 9.79597 49.1571 9.79597 49.2155 9.79597C49.3324 9.85534 49.4493 9.85534 49.5662 9.85534C49.7415 9.85534 49.7999 9.85534 49.9168 9.79597C50.0337 9.67723 50.209 9.49912 50.209 9.08354C50.209 8.43048 49.7415 8.25237 49.5077 8.25237C49.3909 8.25237 49.274 8.25237 49.2155 8.25237C49.1571 8.25237 49.1571 8.25237 49.1571 8.31174V9.7366Z" fill="#E0040B"/>
<path d="M52.1375 9.38035C52.1375 8.66792 52.1375 8.54919 52.1375 8.37108C52.1375 8.19297 52.0791 8.19297 51.9622 8.1336C51.9038 8.1336 51.8453 8.1336 51.7869 8.1336C51.7285 8.1336 51.7285 8.1336 51.7285 8.07423C51.7285 8.01486 51.7869 8.01486 51.8453 8.01486C52.0791 8.01486 52.4297 8.01486 52.5466 8.01486C52.6635 8.01486 52.9557 8.01486 53.131 8.01486C53.1894 8.01486 53.2479 8.01486 53.2479 8.07423C53.2479 8.1336 53.2479 8.1336 53.1894 8.1336C53.131 8.1336 53.131 8.1336 53.0726 8.1336C52.9557 8.1336 52.8972 8.19297 52.8972 8.37108C52.8972 8.48982 52.8972 8.66792 52.8972 9.38035V10.0334C52.8972 10.6865 53.0141 10.9833 53.2479 11.1614C53.4816 11.3395 53.657 11.3395 53.8323 11.3395C54.0076 11.3395 54.2998 11.2802 54.4751 11.1021C54.7673 10.8646 54.7673 10.449 54.7673 9.97405V9.38035C54.7673 8.66792 54.7673 8.54919 54.7673 8.37108C54.7673 8.19297 54.7089 8.19297 54.592 8.1336C54.5336 8.1336 54.4751 8.1336 54.4167 8.1336C54.3582 8.1336 54.3582 8.1336 54.3582 8.07423C54.3582 8.01486 54.4167 8.01486 54.4751 8.01486C54.7089 8.01486 55.0595 8.01486 55.0595 8.01486C55.1179 8.01486 55.4101 8.01486 55.5855 8.01486C55.6439 8.01486 55.7023 8.01486 55.7023 8.07423C55.7023 8.1336 55.7023 8.1336 55.6439 8.1336C55.5855 8.1336 55.5855 8.1336 55.527 8.1336C55.4101 8.1336 55.3517 8.19297 55.3517 8.37108C55.3517 8.48982 55.3517 8.66792 55.3517 9.38035V9.85531C55.3517 10.3896 55.2933 10.924 54.8842 11.2802C54.5336 11.577 54.1829 11.6364 53.8907 11.6364C53.657 11.6364 53.131 11.6364 52.8388 11.3395C52.605 11.1021 52.4297 10.8052 52.4297 10.0928V9.38035H52.1375ZM54.4751 7.18369C54.5335 7.24306 54.4751 7.24306 54.4751 7.24306C54.4751 7.24306 54.4167 7.24306 54.2998 7.24306C54.0076 7.30243 53.5985 7.48054 53.3648 7.53991C53.3063 7.53991 53.3063 7.59928 53.2479 7.59928C53.2479 7.59928 53.1894 7.59928 53.1894 7.53991C53.1894 7.48054 53.1894 7.48054 53.2479 7.48054C53.4816 7.30243 54.0076 6.82748 54.1245 6.76811C54.1829 6.70874 54.2413 6.70874 54.2413 6.70874C54.2998 6.70874 54.2998 6.70874 54.2998 6.76811C54.3582 6.94622 54.4167 7.06496 54.4751 7.18369Z" fill="#E0040B"/>
</g>
<defs>
<linearGradient id="paint0_linear_2632_41762" x1="20.1573" y1="24.7293" x2="20.1573" y2="21.0425" gradientUnits="userSpaceOnUse">
<stop stop-color="white"/>
<stop offset="0.0865801" stop-color="#F7F7F7"/>
<stop offset="0.2172" stop-color="#E3E3E3"/>
<stop offset="0.3756" stop-color="#C1C1C1"/>
<stop offset="0.5559" stop-color="#929292"/>
<stop offset="0.7546" stop-color="#555555"/>
<stop offset="0.9656" stop-color="#0D0D0D"/>
<stop offset="1"/>
</linearGradient>
<linearGradient id="paint1_linear_2632_41762" x1="42.1541" y1="24.8667" x2="42.1541" y2="21.1793" gradientUnits="userSpaceOnUse">
<stop stop-color="white"/>
<stop offset="0.0865801" stop-color="#F7F7F7"/>
<stop offset="0.2172" stop-color="#E3E3E3"/>
<stop offset="0.3756" stop-color="#C1C1C1"/>
<stop offset="0.5559" stop-color="#929292"/>
<stop offset="0.7546" stop-color="#555555"/>
<stop offset="0.9656" stop-color="#0D0D0D"/>
<stop offset="1"/>
</linearGradient>
<linearGradient id="paint2_linear_2632_41762" x1="48.9639" y1="24.8667" x2="48.9639" y2="21.1793" gradientUnits="userSpaceOnUse">
<stop stop-color="white"/>
<stop offset="0.0865801" stop-color="#F7F7F7"/>
<stop offset="0.2172" stop-color="#E3E3E3"/>
<stop offset="0.3756" stop-color="#C1C1C1"/>
<stop offset="0.5559" stop-color="#929292"/>
<stop offset="0.7546" stop-color="#555555"/>
<stop offset="0.9656" stop-color="#0D0D0D"/>
<stop offset="1"/>
</linearGradient>
<linearGradient id="paint3_linear_2632_41762" x1="56.1764" y1="24.8667" x2="56.1764" y2="21.1793" gradientUnits="userSpaceOnUse">
<stop stop-color="white"/>
<stop offset="0.0865801" stop-color="#F7F7F7"/>
<stop offset="0.2172" stop-color="#E3E3E3"/>
<stop offset="0.3756" stop-color="#C1C1C1"/>
<stop offset="0.5559" stop-color="#929292"/>
<stop offset="0.7546" stop-color="#555555"/>
<stop offset="0.9656" stop-color="#0D0D0D"/>
<stop offset="1"/>
</linearGradient>
<linearGradient id="paint4_linear_2632_41762" x1="12.9344" y1="24.7293" x2="12.9344" y2="21.0425" gradientUnits="userSpaceOnUse">
<stop stop-color="white"/>
<stop offset="0.0865801" stop-color="#F7F7F7"/>
<stop offset="0.2172" stop-color="#E3E3E3"/>
<stop offset="0.3756" stop-color="#C1C1C1"/>
<stop offset="0.5559" stop-color="#929292"/>
<stop offset="0.7546" stop-color="#555555"/>
<stop offset="0.9656" stop-color="#0D0D0D"/>
<stop offset="1"/>
</linearGradient>
<linearGradient id="paint5_linear_2632_41762" x1="6.28054" y1="24.7293" x2="6.28054" y2="21.0425" gradientUnits="userSpaceOnUse">
<stop stop-color="white"/>
<stop offset="0.0865801" stop-color="#F7F7F7"/>
<stop offset="0.2172" stop-color="#E3E3E3"/>
<stop offset="0.3756" stop-color="#C1C1C1"/>
<stop offset="0.5559" stop-color="#929292"/>
<stop offset="0.7546" stop-color="#555555"/>
<stop offset="0.9656" stop-color="#0D0D0D"/>
<stop offset="1"/>
</linearGradient>
<linearGradient id="paint6_linear_2632_41762" x1="30.8922" y1="29.3147" x2="30.8922" y2="26.5724" gradientUnits="userSpaceOnUse">
<stop stop-color="white"/>
<stop offset="0.2628" stop-color="#B5B5B5"/>
<stop offset="0.6259" stop-color="#555555"/>
<stop offset="0.8798" stop-color="#181818"/>
<stop offset="1"/>
</linearGradient>
<linearGradient id="paint7_linear_2632_41762" x1="19.9893" y1="32.7975" x2="19.9893" y2="27.1869" gradientUnits="userSpaceOnUse">
<stop stop-color="white"/>
<stop offset="0.0865801" stop-color="#F7F7F7"/>
<stop offset="0.2172" stop-color="#E3E3E3"/>
<stop offset="0.3756" stop-color="#C1C1C1"/>
<stop offset="0.5559" stop-color="#929292"/>
<stop offset="0.7546" stop-color="#555555"/>
<stop offset="0.9656" stop-color="#0D0D0D"/>
<stop offset="1"/>
</linearGradient>
<linearGradient id="paint8_linear_2632_41762" x1="42.0753" y1="33.0693" x2="42.0753" y2="27.46" gradientUnits="userSpaceOnUse">
<stop stop-color="white"/>
<stop offset="0.0865801" stop-color="#F7F7F7"/>
<stop offset="0.2172" stop-color="#E3E3E3"/>
<stop offset="0.3756" stop-color="#C1C1C1"/>
<stop offset="0.5559" stop-color="#929292"/>
<stop offset="0.7546" stop-color="#555555"/>
<stop offset="0.9656" stop-color="#0D0D0D"/>
<stop offset="1"/>
</linearGradient>
<linearGradient id="paint9_linear_2632_41762" x1="49.1993" y1="33.0693" x2="49.1993" y2="27.46" gradientUnits="userSpaceOnUse">
<stop stop-color="white"/>
<stop offset="0.0865801" stop-color="#F7F7F7"/>
<stop offset="0.2172" stop-color="#E3E3E3"/>
<stop offset="0.3756" stop-color="#C1C1C1"/>
<stop offset="0.5559" stop-color="#929292"/>
<stop offset="0.7546" stop-color="#555555"/>
<stop offset="0.9656" stop-color="#0D0D0D"/>
<stop offset="1"/>
</linearGradient>
<linearGradient id="paint10_linear_2632_41762" x1="56.1884" y1="33.0693" x2="56.1884" y2="27.46" gradientUnits="userSpaceOnUse">
<stop stop-color="white"/>
<stop offset="0.0865801" stop-color="#F7F7F7"/>
<stop offset="0.2172" stop-color="#E3E3E3"/>
<stop offset="0.3756" stop-color="#C1C1C1"/>
<stop offset="0.5559" stop-color="#929292"/>
<stop offset="0.7546" stop-color="#555555"/>
<stop offset="0.9656" stop-color="#0D0D0D"/>
<stop offset="1"/>
</linearGradient>
<linearGradient id="paint11_linear_2632_41762" x1="12.732" y1="32.8305" x2="12.732" y2="27.2212" gradientUnits="userSpaceOnUse">
<stop stop-color="white"/>
<stop offset="0.0865801" stop-color="#F7F7F7"/>
<stop offset="0.2172" stop-color="#E3E3E3"/>
<stop offset="0.3756" stop-color="#C1C1C1"/>
<stop offset="0.5559" stop-color="#929292"/>
<stop offset="0.7546" stop-color="#555555"/>
<stop offset="0.9656" stop-color="#0D0D0D"/>
<stop offset="1"/>
</linearGradient>
<linearGradient id="paint12_linear_2632_41762" x1="6.5048" y1="32.8305" x2="6.5048" y2="27.2212" gradientUnits="userSpaceOnUse">
<stop stop-color="white"/>
<stop offset="0.0865801" stop-color="#F7F7F7"/>
<stop offset="0.2172" stop-color="#E3E3E3"/>
<stop offset="0.3756" stop-color="#C1C1C1"/>
<stop offset="0.5559" stop-color="#929292"/>
<stop offset="0.7546" stop-color="#555555"/>
<stop offset="0.9656" stop-color="#0D0D0D"/>
<stop offset="1"/>
</linearGradient>
<clipPath id="clip0_2632_41762">
<rect width="60.9524" height="64" fill="white" transform="translate(0.944519)"/>
</clipPath>
</defs>
</svg>
