<svg width="320" height="22" viewBox="0 0 320 22" fill="none" xmlns="http://www.w3.org/2000/svg">
<path d="M9.85801 21.043C11.1422 21.043 12.6672 20.9026 13.4699 20.5815C13.811 20.4411 13.8913 20.3407 13.9916 19.9996C14.1923 19.3174 14.433 17.5716 14.433 17.3308C14.433 17.1703 14.3929 17.0299 14.2525 17.0299C14.0919 17.0299 14.0518 17.1101 13.9916 17.4312C13.9113 17.7924 13.6505 18.3743 13.3094 18.7555C12.5067 19.6786 11.4232 19.8792 9.63728 19.8792C6.94845 19.8792 3.31651 17.5114 3.31651 12.7357C3.31651 10.7893 3.69776 8.88308 5.16258 7.53866C6.04548 6.73602 7.18924 6.29457 8.93498 6.29457C10.781 6.29457 12.3462 6.83635 13.0084 7.53866C13.51 8.06038 13.7709 8.76268 13.7909 9.38473C13.7909 9.66565 13.8311 9.82618 13.9916 9.82618C14.1722 9.82618 14.2123 9.66565 14.2324 9.36466C14.2725 8.96334 14.2525 7.85972 14.2926 7.19754C14.3327 6.49523 14.3929 6.25444 14.3929 6.09391C14.3929 5.97352 14.3126 5.87319 14.0919 5.85312C13.4899 5.79292 12.8478 5.61233 12.0853 5.512C11.1623 5.39161 10.4199 5.31134 9.17577 5.31134C6.18594 5.31134 4.27968 6.11398 2.83493 7.43833C0.908598 9.20413 0.487213 11.5719 0.487213 12.9364C0.487213 14.8828 1.00893 17.1302 2.97539 18.8559C4.80139 20.4411 7.10898 21.043 9.85801 21.043Z" fill="#333333"/>
<path d="M24.2213 21.043C29.3181 21.043 32.5286 17.4111 32.5286 12.816C32.5286 8.2209 29.4184 5.31134 24.422 5.31134C18.4022 5.31134 16.1347 9.74592 16.1347 13.1772C16.1347 16.7289 18.4624 21.043 24.2213 21.043ZM25.0641 20.0397C21.2114 20.0397 18.9038 16.7289 18.9038 12.5551C18.9038 7.55873 21.5325 6.27451 23.8401 6.27451C27.1309 6.27451 29.7194 9.06367 29.7194 13.5584C29.7194 19.3575 26.4687 20.0397 25.0641 20.0397Z" fill="#333333"/>
<path d="M37.2239 9.60545H37.2841C37.6453 9.98671 39.8726 12.4949 42.0598 14.6621C44.1466 16.7289 46.7151 19.3575 47.9792 20.5615C48.2 20.7822 48.4407 21.0029 48.6615 21.0029C48.8421 21.0029 48.9223 20.8223 48.9223 20.3809L49.1431 7.71925C49.1631 6.59556 49.3236 6.17418 49.8855 6.01365C50.1263 5.95345 50.2868 5.95345 50.4875 5.95345C50.7283 5.95345 50.8487 5.89325 50.8487 5.77286C50.8487 5.61233 50.648 5.59226 50.3871 5.59226C49.4039 5.59226 48.6414 5.65246 48.4207 5.65246C47.9993 5.65246 47.0361 5.59226 45.9927 5.59226C45.6917 5.59226 45.471 5.61233 45.471 5.77286C45.471 5.89325 45.5512 5.95345 45.792 5.95345C46.073 5.95345 46.5545 5.95345 46.8555 6.07385C47.3371 6.27451 47.5177 6.65576 47.5378 7.87978L47.7384 16.8894H47.6381C47.297 16.5683 44.5881 13.6788 43.2236 12.3144C40.294 9.40479 37.2439 6.13405 37.0032 5.87319C36.662 5.512 36.4814 5.25114 36.2607 5.25114C36.0601 5.25114 35.9999 5.53207 35.9999 5.93338L35.8193 17.8124C35.7992 19.5582 35.7189 20.1401 35.1972 20.3006C34.9163 20.3809 34.5551 20.4009 34.2943 20.4009C34.0936 20.4009 33.9732 20.4411 33.9732 20.5615C33.9732 20.7421 34.1538 20.7621 34.4146 20.7621C35.4581 20.7621 36.4012 20.7019 36.5818 20.7019C36.963 20.7019 37.7657 20.7621 39.0699 20.7621C39.3509 20.7621 39.5315 20.722 39.5315 20.5615C39.5315 20.4411 39.4111 20.4009 39.1903 20.4009C38.8693 20.4009 38.488 20.3809 38.1469 20.2605C37.7456 20.12 37.4847 19.5983 37.4446 18.0331L37.2239 9.60545Z" fill="#333333"/>
<path d="M66.9114 17.2104C66.9114 16.2071 66.9115 15.4045 66.9315 14.8025C66.9516 14.1002 67.1522 13.7591 67.694 13.6588C67.9348 13.6186 68.0753 13.5986 68.2358 13.5986C68.3763 13.5986 68.4967 13.5584 68.4967 13.438C68.4967 13.2775 68.3562 13.2374 68.0953 13.2374C67.4332 13.2374 66.3697 13.2976 65.7476 13.2976C65.1456 13.2976 63.8815 13.2374 62.8381 13.2374C62.5571 13.2374 62.4167 13.2775 62.4167 13.438C62.4167 13.5584 62.5371 13.5986 62.7177 13.5986C62.9986 13.5986 63.3397 13.6186 63.5002 13.6588C64.1624 13.7992 64.343 14.1203 64.3631 14.8025C64.3831 15.4045 64.3831 16.167 64.3831 17.1703V19.0565C64.3831 19.3976 64.3029 19.6585 64.0019 19.799C63.5203 20.0197 62.818 20.0197 62.2963 20.0197C58.0624 20.0197 55.3133 16.7891 55.3133 12.4749C55.3133 10.0068 56.0357 8.50183 57.1594 7.55873C58.564 6.3949 60.0288 6.31464 61.1325 6.31464C63.3999 6.31464 65.0052 7.23767 65.6072 7.87978C66.1289 8.44163 66.2292 9.08374 66.2894 9.54526C66.3095 9.70578 66.3496 9.80611 66.4901 9.80611C66.6506 9.80611 66.7108 9.70578 66.7108 9.38473C66.7108 6.87648 66.8513 6.31464 66.8513 6.09391C66.8513 5.95345 66.8111 5.87319 66.5703 5.85312C66.1088 5.83306 65.4065 5.71266 64.9851 5.6324C64.5838 5.55213 62.818 5.31134 61.4334 5.31134C59.7479 5.31134 57.962 5.4518 56.0357 6.61563C54.2097 7.71925 52.5442 9.96664 52.5442 13.1772C52.5442 18.7154 56.8985 21.043 61.8147 21.043C63.3798 21.043 65.3463 20.8223 66.6506 20.1401C66.8914 19.9996 66.9114 19.9595 66.9114 19.4177V17.2104Z" fill="#333333"/>
<path d="M72.1034 14.943C72.1034 16.7891 72.1034 18.3743 72.003 19.217C71.9228 19.799 71.8224 20.2404 71.4211 20.3207C71.2405 20.3608 70.9997 20.4009 70.6987 20.4009C70.4579 20.4009 70.3777 20.4611 70.3777 20.5615C70.3777 20.7019 70.5181 20.7621 70.779 20.7621C71.5816 20.7621 72.8458 20.7019 73.227 20.7019C73.528 20.7019 75.0129 20.7621 76.1767 20.7621C76.4376 20.7621 76.5781 20.7019 76.5781 20.5615C76.5781 20.4611 76.4978 20.4009 76.3373 20.4009C76.0965 20.4009 75.655 20.3608 75.354 20.3207C74.7521 20.2404 74.6317 19.799 74.5715 19.217C74.4711 18.3743 74.4711 16.7891 74.4711 14.9229V14.642C74.4711 14.5216 74.5313 14.4815 74.6317 14.4815L76.3774 14.5216C76.5179 14.5216 76.6383 14.5417 76.7386 14.6621C76.9994 14.9631 77.9225 16.3275 78.7251 17.4312C79.8488 18.9763 80.6113 19.9193 81.4741 20.3809C81.9959 20.6618 82.4975 20.7621 83.6212 20.7621H85.5275C85.7683 20.7621 85.9087 20.722 85.9087 20.5615C85.9087 20.4611 85.8285 20.4009 85.6679 20.4009C85.5074 20.4009 85.3268 20.3809 85.1061 20.3407C84.8051 20.2805 83.9824 20.1401 82.8587 18.9763C81.6748 17.7322 80.2903 15.9463 78.5044 13.6989C80.5311 12.0535 81.1531 10.689 81.1531 9.20413C81.1531 7.85972 80.3505 6.83635 79.7886 6.4551C78.705 5.71266 77.3606 5.59226 76.0965 5.59226C75.4744 5.59226 73.9494 5.65246 73.2672 5.65246C72.8458 5.65246 71.5816 5.59226 70.5181 5.59226C70.2172 5.59226 70.0767 5.6324 70.0767 5.77286C70.0767 5.91332 70.1971 5.95345 70.4178 5.95345C70.6987 5.95345 71.0399 5.97352 71.2004 6.01365C71.8626 6.15411 72.0231 6.47517 72.0632 7.15741C72.1034 7.79952 72.1034 8.36136 72.1034 11.4114V14.943ZM74.4711 6.89655C74.4711 6.73602 74.5113 6.65576 74.6517 6.61563C74.8524 6.55543 75.2136 6.53536 75.7152 6.53536C76.8991 6.53536 78.7853 7.35807 78.7853 10.2074C78.7853 11.8528 78.2034 12.7759 77.6014 13.2173C77.2402 13.4782 76.9794 13.5584 76.1767 13.5584C75.6751 13.5584 75.0731 13.4982 74.6517 13.3578C74.5113 13.2976 74.4711 13.2173 74.4711 12.9966V6.89655Z" fill="#333333"/>
<path d="M86.8495 14.943C86.8495 16.7891 86.8495 18.3743 86.7491 19.217C86.6689 19.799 86.5685 20.2404 86.1672 20.3207C85.9866 20.3608 85.7458 20.4009 85.4449 20.4009C85.2041 20.4009 85.1238 20.4611 85.1238 20.5615C85.1238 20.7019 85.2643 20.7621 85.5251 20.7621C85.9264 20.7621 86.4482 20.722 86.9097 20.722C87.3913 20.7019 87.8327 20.7019 88.0534 20.7019C88.6554 20.7019 89.2775 20.722 90.1403 20.7621C91.0031 20.7822 92.1067 20.8223 93.6117 20.8223C94.3742 20.8223 94.5548 20.8223 94.6953 20.3006C94.7956 19.8993 94.9561 18.5348 94.9561 18.0733C94.9561 17.8726 94.9561 17.7121 94.7956 17.7121C94.6551 17.7121 94.615 17.7924 94.5749 18.0131C94.4344 18.8358 94.1936 19.2572 93.6719 19.498C93.1502 19.7388 92.3074 19.7388 91.7857 19.7388C89.739 19.7388 89.4179 19.4378 89.3778 18.0532C89.3577 17.4713 89.3778 15.6252 89.3778 14.943V13.3578C89.3778 13.2374 89.3978 13.1571 89.4982 13.1571C89.9798 13.1571 91.9663 13.1772 92.3475 13.2173C93.09 13.2976 93.3709 13.5986 93.4712 13.9999C93.5314 14.2608 93.5314 14.5216 93.5515 14.7223C93.5515 14.8226 93.5916 14.9029 93.7321 14.9029C93.9127 14.9029 93.9127 14.6821 93.9127 14.5216C93.9127 14.3811 93.9729 13.5785 93.9929 13.1772C94.0732 12.1538 94.1535 11.8328 94.1535 11.7124C94.1535 11.592 94.0933 11.5519 94.013 11.5519C93.9127 11.5519 93.8324 11.6522 93.692 11.8127C93.5114 12.0134 93.2104 12.0736 92.7288 12.1137C92.2673 12.1538 89.9597 12.1538 89.5182 12.1538C89.3978 12.1538 89.3778 12.0736 89.3778 11.9331V6.85642C89.3778 6.71596 89.4179 6.65576 89.5182 6.65576C89.9196 6.65576 92.0265 6.69589 92.3676 6.73602C93.3709 6.85642 93.5716 7.09721 93.712 7.4584C93.8124 7.69919 93.8324 8.04031 93.8324 8.18077C93.8324 8.36137 93.8725 8.46169 94.013 8.46169C94.1535 8.46169 94.1936 8.3413 94.2137 8.24097C94.2538 8.00018 94.2939 7.11728 94.314 6.91662C94.3742 5.99358 94.4745 5.75279 94.4745 5.61233C94.4745 5.512 94.4545 5.43174 94.3541 5.43174C94.2538 5.43174 94.1334 5.49193 94.0331 5.512C93.8726 5.55213 93.5515 5.59226 93.1702 5.6324C92.789 5.65246 88.7959 5.65246 88.1538 5.65246C87.8728 5.65246 87.4113 5.6324 86.8896 5.61233C86.388 5.61233 85.806 5.59226 85.2643 5.59226C84.9633 5.59226 84.8228 5.6324 84.8228 5.77286C84.8228 5.91332 84.9432 5.95345 85.1639 5.95345C85.4449 5.95345 85.786 5.97352 85.9465 6.01365C86.6087 6.15411 86.7692 6.47517 86.8093 7.15741C86.8495 7.79952 86.8495 8.36136 86.8495 11.4114V14.943Z" fill="#333333"/>
<path d="M100.953 21.043C102.016 21.043 103.14 20.8624 104.143 20.2203C105.588 19.2772 106.029 17.8927 106.029 16.7289C106.029 14.8226 105.166 13.438 102.738 11.612L102.177 11.1907C100.511 9.92651 100.05 9.2242 100.05 8.30117C100.05 7.09721 100.953 6.23437 102.437 6.23437C103.742 6.23437 104.324 6.83635 104.625 7.21761C105.046 7.73932 105.146 8.36137 105.146 8.54196C105.146 8.78275 105.207 8.90315 105.347 8.90315C105.508 8.90315 105.568 8.74262 105.568 8.30117C105.568 6.73602 105.648 6.15411 105.648 5.89325C105.648 5.75279 105.548 5.69259 105.367 5.65246C104.845 5.512 104.003 5.31134 102.698 5.31134C99.9091 5.31134 98.063 6.89655 98.063 9.10381C98.063 10.7291 98.8256 12.1338 101.033 13.8594L101.956 14.5818C103.621 15.8861 103.922 16.8091 103.922 17.7924C103.922 18.8559 103.039 20.0799 101.233 20.0799C99.9894 20.0799 98.8055 19.5381 98.364 18.0532C98.2637 17.7121 98.1834 17.2907 98.1834 17.0299C98.1834 16.8693 98.1634 16.6887 97.9828 16.6887C97.8223 16.6887 97.7621 16.9095 97.742 17.2104C97.7219 17.5315 97.6417 18.7355 97.6417 19.8391C97.6417 20.2805 97.7019 20.3809 98.0229 20.5213C98.8857 20.9026 99.7887 21.043 100.953 21.043Z" fill="#333333"/>
<path d="M116.304 21.043C121.4 21.043 124.611 17.4111 124.611 12.816C124.611 8.2209 121.501 5.31134 116.504 5.31134C110.484 5.31134 108.217 9.74592 108.217 13.1772C108.217 16.7289 110.545 21.043 116.304 21.043ZM117.146 20.0397C113.294 20.0397 110.986 16.7289 110.986 12.5551C110.986 7.55873 113.615 6.27451 115.922 6.27451C119.213 6.27451 121.802 9.06367 121.802 13.5584C121.802 19.3575 118.551 20.0397 117.146 20.0397Z" fill="#333333"/>
<path d="M134.214 14.943C134.214 16.7891 134.214 18.3743 134.113 19.217C134.033 19.799 133.933 20.2404 133.531 20.3207C133.351 20.3608 133.11 20.4009 132.809 20.4009C132.568 20.4009 132.488 20.4611 132.488 20.5615C132.488 20.7019 132.629 20.7621 132.889 20.7621C133.291 20.7621 133.812 20.722 134.274 20.722C134.755 20.7019 135.197 20.7019 135.418 20.7019C135.919 20.7019 136.622 20.7621 137.384 20.8223C138.147 20.8825 138.969 20.9427 139.692 20.9427C143.404 20.9427 145.491 19.518 146.414 18.5749C147.537 17.4312 148.601 15.5048 148.601 12.9765C148.601 10.5887 147.658 8.92321 146.655 7.87978C144.467 5.59226 141.116 5.59226 138.608 5.59226C137.404 5.59226 136.14 5.65246 135.518 5.65246C134.956 5.65246 133.692 5.59226 132.628 5.59226C132.328 5.59226 132.187 5.6324 132.187 5.77286C132.187 5.91332 132.307 5.95345 132.528 5.95345C132.809 5.95345 133.15 5.97352 133.311 6.01365C133.973 6.15411 134.133 6.47517 134.174 7.15741C134.214 7.79952 134.214 8.36136 134.214 11.4114V14.943ZM136.722 11.0903C136.722 9.50512 136.722 7.75939 136.742 7.07714C136.742 6.85642 136.802 6.75609 136.983 6.67582C137.143 6.59556 137.886 6.53536 138.287 6.53536C139.852 6.53536 142.14 6.77616 143.986 8.54196C144.849 9.36466 145.912 11.0101 145.912 13.5584C145.912 15.6252 145.511 17.4512 144.227 18.5549C143.023 19.5983 141.658 19.9996 139.611 19.9996C138.026 19.9996 137.244 19.5782 136.983 19.197C136.822 18.9763 136.782 18.1736 136.762 17.672C136.742 17.2907 136.722 15.7456 136.722 13.6186V11.0903Z" fill="#333333"/>
<path d="M152.389 14.943C152.389 16.7891 152.389 18.3743 152.289 19.217C152.208 19.799 152.108 20.2404 151.707 20.3207C151.526 20.3608 151.285 20.4009 150.984 20.4009C150.744 20.4009 150.663 20.4611 150.663 20.5615C150.663 20.7019 150.804 20.7621 151.065 20.7621C151.466 20.7621 151.988 20.722 152.449 20.722C152.931 20.7019 153.372 20.7019 153.593 20.7019C154.195 20.7019 154.817 20.722 155.68 20.7621C156.543 20.7822 157.646 20.8223 159.151 20.8223C159.914 20.8223 160.094 20.8223 160.235 20.3006C160.335 19.8993 160.496 18.5348 160.496 18.0733C160.496 17.8726 160.496 17.7121 160.335 17.7121C160.195 17.7121 160.155 17.7924 160.114 18.0131C159.974 18.8358 159.733 19.2572 159.211 19.498C158.69 19.7388 157.847 19.7388 157.325 19.7388C155.279 19.7388 154.958 19.4378 154.917 18.0532C154.897 17.4713 154.917 15.6252 154.917 14.943V13.3578C154.917 13.2374 154.937 13.1571 155.038 13.1571C155.519 13.1571 157.506 13.1772 157.887 13.2173C158.63 13.2976 158.911 13.5986 159.011 13.9999C159.071 14.2608 159.071 14.5216 159.091 14.7223C159.091 14.8226 159.131 14.9029 159.272 14.9029C159.452 14.9029 159.452 14.6821 159.452 14.5216C159.452 14.3811 159.512 13.5785 159.533 13.1772C159.613 12.1538 159.693 11.8328 159.693 11.7124C159.693 11.592 159.633 11.5519 159.553 11.5519C159.452 11.5519 159.372 11.6522 159.232 11.8127C159.051 12.0134 158.75 12.0736 158.268 12.1137C157.807 12.1538 155.499 12.1538 155.058 12.1538C154.937 12.1538 154.917 12.0736 154.917 11.9331V6.85642C154.917 6.71596 154.958 6.65576 155.058 6.65576C155.459 6.65576 157.566 6.69589 157.907 6.73602C158.91 6.85642 159.111 7.09721 159.252 7.4584C159.352 7.69919 159.372 8.04031 159.372 8.18077C159.372 8.36137 159.412 8.46169 159.553 8.46169C159.693 8.46169 159.733 8.3413 159.753 8.24097C159.793 8.00018 159.834 7.11728 159.854 6.91662C159.914 5.99358 160.014 5.75279 160.014 5.61233C160.014 5.512 159.994 5.43174 159.894 5.43174C159.793 5.43174 159.673 5.49193 159.573 5.512C159.412 5.55213 159.091 5.59226 158.71 5.6324C158.329 5.65246 154.335 5.65246 153.693 5.65246C153.412 5.65246 152.951 5.6324 152.429 5.61233C151.928 5.61233 151.346 5.59226 150.804 5.59226C150.503 5.59226 150.362 5.6324 150.362 5.77286C150.362 5.91332 150.483 5.95345 150.704 5.95345C150.984 5.95345 151.326 5.97352 151.486 6.01365C152.148 6.15411 152.309 6.47517 152.349 7.15741C152.389 7.79952 152.389 8.36136 152.389 11.4114V14.943Z" fill="#333333"/>
<path d="M172.789 11.4114C172.789 8.36136 172.789 7.79952 172.829 7.15741C172.869 6.4551 173.03 6.11398 173.571 6.01365C173.812 5.97352 174.133 5.95345 174.354 5.95345C174.595 5.95345 174.715 5.91332 174.715 5.77286C174.715 5.6324 174.575 5.59226 174.294 5.59226C173.511 5.59226 172.046 5.65246 171.565 5.65246C171.023 5.65246 169.759 5.59226 168.816 5.59226C168.515 5.59226 168.374 5.6324 168.374 5.77286C168.374 5.91332 168.495 5.95345 168.716 5.95345C168.976 5.95345 169.217 5.97352 169.378 6.01365C170.04 6.15411 170.2 6.47517 170.241 7.15741C170.281 7.79952 170.281 8.36136 170.281 11.4114V14.943C170.281 16.7891 170.281 18.3743 170.18 19.217C170.1 19.799 170 20.2404 169.598 20.3207C169.418 20.3608 169.177 20.4009 168.876 20.4009C168.635 20.4009 168.555 20.4611 168.555 20.5615C168.555 20.7019 168.695 20.7621 168.956 20.7621C169.358 20.7621 169.879 20.722 170.341 20.722C170.822 20.7019 171.264 20.7019 171.485 20.7019C172.307 20.7019 173.03 20.722 173.933 20.7621C174.836 20.7822 175.879 20.8223 177.324 20.8223C178.367 20.8223 178.468 20.722 178.588 20.2805C178.749 19.6986 178.889 18.1937 178.889 17.973C178.889 17.7322 178.869 17.6318 178.728 17.6318C178.568 17.6318 178.528 17.7522 178.508 17.9328C178.468 18.3141 178.227 18.8759 177.986 19.1368C177.484 19.6786 176.702 19.6986 175.638 19.6986C174.073 19.6986 173.551 19.5582 173.21 19.2572C172.789 18.896 172.789 17.5114 172.789 14.943V11.4114Z" fill="#333333"/>
<path d="M187.698 15.5249C187.798 15.5249 187.858 15.565 187.899 15.6654L189.504 19.9193C189.604 20.1601 189.464 20.3407 189.323 20.3809C189.123 20.4009 189.042 20.4411 189.042 20.5615C189.042 20.7019 189.283 20.7019 189.644 20.722C191.25 20.7621 192.714 20.7621 193.437 20.7621C194.179 20.7621 194.36 20.722 194.36 20.5615C194.36 20.421 194.259 20.4009 194.099 20.4009C193.858 20.4009 193.557 20.3809 193.256 20.3207C192.835 20.2203 192.253 19.9394 191.49 18.1335C190.206 15.0835 186.996 6.89655 186.514 5.79292C186.313 5.33141 186.193 5.15081 186.012 5.15081C185.812 5.15081 185.691 5.37154 185.451 5.95345L180.414 18.5549C180.013 19.5582 179.631 20.2404 178.708 20.3608C178.548 20.3809 178.267 20.4009 178.086 20.4009C177.926 20.4009 177.846 20.4411 177.846 20.5615C177.846 20.722 177.966 20.7621 178.227 20.7621C179.27 20.7621 180.374 20.7019 180.595 20.7019C181.217 20.7019 182.079 20.7621 182.722 20.7621C182.942 20.7621 183.063 20.722 183.063 20.5615C183.063 20.4411 183.002 20.4009 182.762 20.4009H182.461C181.839 20.4009 181.658 20.1401 181.658 19.7789C181.658 19.5381 181.758 19.0565 181.959 18.5549L183.043 15.6854C183.083 15.565 183.123 15.5249 183.223 15.5249H187.698ZM183.625 14.5216C183.544 14.5216 183.524 14.4614 183.544 14.3811L185.39 9.44493C185.41 9.36466 185.451 9.26433 185.511 9.26433C185.571 9.26433 185.591 9.36466 185.611 9.44493L187.417 14.4012C187.437 14.4614 187.417 14.5216 187.317 14.5216H183.625Z" fill="#333333"/>
<path d="M201.684 14.943C201.684 16.7891 201.684 18.3743 201.584 19.217C201.503 19.799 201.403 20.2404 201.002 20.3207C200.821 20.3608 200.58 20.4009 200.279 20.4009C200.038 20.4009 199.958 20.4611 199.958 20.5615C199.958 20.7019 200.099 20.7621 200.36 20.7621C201.162 20.7621 202.426 20.7019 202.808 20.7019C203.109 20.7019 204.593 20.7621 205.757 20.7621C206.018 20.7621 206.159 20.7019 206.159 20.5615C206.159 20.4611 206.078 20.4009 205.918 20.4009C205.677 20.4009 205.236 20.3608 204.935 20.3207C204.333 20.2404 204.212 19.799 204.152 19.217C204.052 18.3743 204.052 16.7891 204.052 14.9229V14.642C204.052 14.5216 204.112 14.4815 204.212 14.4815L205.958 14.5216C206.098 14.5216 206.219 14.5417 206.319 14.6621C206.58 14.9631 207.503 16.3275 208.306 17.4312C209.429 18.9763 210.192 19.9193 211.055 20.3809C211.576 20.6618 212.078 20.7621 213.202 20.7621H215.108C215.349 20.7621 215.489 20.722 215.489 20.5615C215.489 20.4611 215.409 20.4009 215.248 20.4009C215.088 20.4009 214.907 20.3809 214.687 20.3407C214.386 20.2805 213.563 20.1401 212.439 18.9763C211.255 17.7322 209.871 15.9463 208.085 13.6989C210.112 12.0535 210.734 10.689 210.734 9.20413C210.734 7.85972 209.931 6.83635 209.369 6.4551C208.286 5.71266 206.941 5.59226 205.677 5.59226C205.055 5.59226 203.53 5.65246 202.848 5.65246C202.426 5.65246 201.162 5.59226 200.099 5.59226C199.798 5.59226 199.657 5.6324 199.657 5.77286C199.657 5.91332 199.778 5.95345 199.998 5.95345C200.279 5.95345 200.62 5.97352 200.781 6.01365C201.443 6.15411 201.604 6.47517 201.644 7.15741C201.684 7.79952 201.684 8.36136 201.684 11.4114V14.943ZM204.052 6.89655C204.052 6.73602 204.092 6.65576 204.232 6.61563C204.433 6.55543 204.794 6.53536 205.296 6.53536C206.48 6.53536 208.366 7.35807 208.366 10.2074C208.366 11.8528 207.784 12.7759 207.182 13.2173C206.821 13.4782 206.56 13.5584 205.757 13.5584C205.256 13.5584 204.654 13.4982 204.232 13.3578C204.092 13.2976 204.052 13.2173 204.052 12.9966V6.89655Z" fill="#333333"/>
<path d="M216.43 14.943C216.43 16.7891 216.43 18.3743 216.33 19.217C216.249 19.799 216.149 20.2404 215.748 20.3207C215.567 20.3608 215.326 20.4009 215.025 20.4009C214.785 20.4009 214.704 20.4611 214.704 20.5615C214.704 20.7019 214.845 20.7621 215.106 20.7621C215.507 20.7621 216.029 20.722 216.49 20.722C216.972 20.7019 217.413 20.7019 217.634 20.7019C218.236 20.7019 218.858 20.722 219.721 20.7621C220.584 20.7822 221.687 20.8223 223.192 20.8223C223.955 20.8223 224.135 20.8223 224.276 20.3006C224.376 19.8993 224.537 18.5348 224.537 18.0733C224.537 17.8726 224.537 17.7121 224.376 17.7121C224.236 17.7121 224.196 17.7924 224.155 18.0131C224.015 18.8358 223.774 19.2572 223.252 19.498C222.731 19.7388 221.888 19.7388 221.366 19.7388C219.32 19.7388 218.998 19.4378 218.958 18.0532C218.938 17.4713 218.958 15.6252 218.958 14.943V13.3578C218.958 13.2374 218.978 13.1571 219.079 13.1571C219.56 13.1571 221.547 13.1772 221.928 13.2173C222.671 13.2976 222.951 13.5986 223.052 13.9999C223.112 14.2608 223.112 14.5216 223.132 14.7223C223.132 14.8226 223.172 14.9029 223.313 14.9029C223.493 14.9029 223.493 14.6821 223.493 14.5216C223.493 14.3811 223.553 13.5785 223.573 13.1772C223.654 12.1538 223.734 11.8328 223.734 11.7124C223.734 11.592 223.674 11.5519 223.594 11.5519C223.493 11.5519 223.413 11.6522 223.272 11.8127C223.092 12.0134 222.791 12.0736 222.309 12.1137C221.848 12.1538 219.54 12.1538 219.099 12.1538C218.978 12.1538 218.958 12.0736 218.958 11.9331V6.85642C218.958 6.71596 218.998 6.65576 219.099 6.65576C219.5 6.65576 221.607 6.69589 221.948 6.73602C222.951 6.85642 223.152 7.09721 223.293 7.4584C223.393 7.69919 223.413 8.04031 223.413 8.18077C223.413 8.36137 223.453 8.46169 223.594 8.46169C223.734 8.46169 223.774 8.3413 223.794 8.24097C223.834 8.00018 223.874 7.11728 223.895 6.91662C223.955 5.99358 224.055 5.75279 224.055 5.61233C224.055 5.512 224.035 5.43174 223.935 5.43174C223.834 5.43174 223.714 5.49193 223.614 5.512C223.453 5.55213 223.132 5.59226 222.751 5.6324C222.37 5.65246 218.376 5.65246 217.734 5.65246C217.453 5.65246 216.992 5.6324 216.47 5.61233C215.969 5.61233 215.387 5.59226 214.845 5.59226C214.544 5.59226 214.403 5.6324 214.403 5.77286C214.403 5.91332 214.524 5.95345 214.744 5.95345C215.025 5.95345 215.367 5.97352 215.527 6.01365C216.189 6.15411 216.35 6.47517 216.39 7.15741C216.43 7.79952 216.43 8.36136 216.43 11.4114V14.943Z" fill="#333333"/>
<path d="M228.707 14.943C228.707 16.7891 228.707 18.3743 228.607 19.217C228.526 19.799 228.426 20.2404 228.025 20.3207C227.844 20.3608 227.603 20.4009 227.302 20.4009C227.062 20.4009 226.981 20.4611 226.981 20.5615C226.981 20.7019 227.122 20.7621 227.383 20.7621C228.185 20.7621 229.45 20.7019 229.911 20.7019C230.433 20.7019 231.697 20.7621 233.021 20.7621C233.242 20.7621 233.403 20.7019 233.403 20.5615C233.403 20.4611 233.302 20.4009 233.081 20.4009C232.78 20.4009 232.339 20.3608 232.058 20.3207C231.456 20.2404 231.336 19.799 231.276 19.2371C231.175 18.3743 231.175 16.7891 231.175 14.943V6.91662C231.175 6.69589 231.235 6.5755 231.336 6.53536C231.516 6.47517 231.817 6.4551 232.118 6.4551C232.58 6.4551 233.402 6.5755 234.125 7.23767C235.249 8.24097 235.309 9.58539 235.309 10.2476C235.309 12.2943 233.744 13.5584 232.62 13.5584C232.199 13.5584 232.058 13.6186 232.058 13.7792C232.058 13.9196 232.199 13.9397 232.299 13.9598C232.399 13.9798 232.62 13.9798 232.72 13.9798C235.57 13.9798 237.656 11.9732 237.656 9.12387C237.656 8.06037 237.095 7.15741 236.653 6.73602C236.332 6.43503 235.429 5.59226 232.921 5.59226C231.998 5.59226 230.834 5.65246 230.011 5.65246C229.45 5.65246 228.185 5.59226 227.122 5.59226C226.821 5.59226 226.68 5.6324 226.68 5.77286C226.68 5.91332 226.801 5.95345 227.022 5.95345C227.302 5.95345 227.644 5.97352 227.804 6.01365C228.466 6.15411 228.627 6.47517 228.667 7.15741C228.707 7.79952 228.707 8.36136 228.707 11.4114V14.943Z" fill="#333333"/>
<path d="M240.592 14.341C240.592 17.2506 241.354 18.7355 242.377 19.6585C243.842 20.9828 245.769 21.043 246.832 21.043C248.136 21.043 249.581 20.8223 251.006 19.5983C252.691 18.1535 252.912 15.7858 252.912 13.5584V11.4114C252.912 8.36136 252.912 7.79952 252.952 7.15741C252.992 6.4551 253.153 6.11398 253.695 6.01365C253.935 5.97352 254.056 5.95345 254.277 5.95345C254.517 5.95345 254.638 5.91332 254.638 5.77286C254.638 5.6324 254.497 5.59226 254.216 5.59226C253.434 5.59226 252.17 5.65246 251.929 5.65246C251.909 5.65246 250.645 5.59226 249.621 5.59226C249.34 5.59226 249.2 5.6324 249.2 5.77286C249.2 5.91332 249.32 5.95345 249.541 5.95345C249.762 5.95345 250.103 5.97352 250.263 6.01365C250.926 6.15411 251.086 6.47517 251.126 7.15741C251.166 7.79952 251.166 8.36136 251.166 11.4114V13.9196C251.166 15.9864 251.106 17.7924 250.003 18.896C249.2 19.6986 248.116 19.9795 247.233 19.9795C246.551 19.9795 245.628 19.8993 244.725 19.1568C243.742 18.3542 243.16 17.1302 243.16 14.2206V11.4114C243.16 8.36136 243.16 7.79952 243.2 7.15741C243.24 6.4551 243.401 6.11398 243.943 6.01365C244.183 5.97352 244.304 5.95345 244.525 5.95345C244.725 5.95345 244.846 5.91332 244.846 5.77286C244.846 5.6324 244.705 5.59226 244.404 5.59226C243.682 5.59226 242.418 5.65246 241.936 5.65246C241.334 5.65246 240.07 5.59226 239.006 5.59226C238.705 5.59226 238.565 5.6324 238.565 5.77286C238.565 5.91332 238.685 5.95345 238.906 5.95345C239.187 5.95345 239.528 5.97352 239.689 6.01365C240.351 6.15411 240.511 6.47517 240.551 7.15741C240.592 7.79952 240.592 8.36136 240.592 11.4114V14.341ZM249.842 1.19782C249.742 1.01723 249.702 0.957031 249.561 0.957031C249.501 0.957031 249.36 0.997163 249.16 1.13762C248.839 1.33828 246.732 2.90343 245.929 3.66593C245.829 3.76626 245.749 3.84653 245.749 3.92679C245.749 4.00706 245.829 4.04719 245.869 4.04719C245.909 4.04719 246.05 3.96692 246.21 3.88666C246.952 3.48534 248.538 2.84323 249.641 2.70277C250.043 2.66264 250.223 2.70277 250.324 2.70277C250.424 2.70277 250.544 2.64257 250.424 2.40178C250.183 1.86 250.003 1.47875 249.842 1.19782Z" fill="#333333"/>
<path d="M258.141 14.943C258.141 16.7891 258.141 18.3743 258.04 19.217C257.96 19.799 257.86 20.2404 257.458 20.3207C257.278 20.3608 257.037 20.4009 256.736 20.4009C256.495 20.4009 256.415 20.4611 256.415 20.5615C256.415 20.7019 256.555 20.7621 256.816 20.7621C257.217 20.7621 257.739 20.722 258.201 20.722C258.682 20.7019 259.124 20.7019 259.344 20.7019C259.645 20.7019 260.247 20.722 260.849 20.7621C261.431 20.7822 262.013 20.8223 262.254 20.8223C265.946 20.8223 267.612 18.595 267.612 16.4479C267.612 14.1002 265.605 12.6755 263.96 12.1137C265.063 11.2308 266.006 10.2476 266.006 8.60216C266.006 7.53866 265.364 5.59226 261.732 5.59226C261.05 5.59226 260.268 5.65246 259.284 5.65246C258.883 5.65246 257.619 5.59226 256.555 5.59226C256.254 5.59226 256.114 5.6324 256.114 5.77286C256.114 5.91332 256.234 5.95345 256.455 5.95345C256.736 5.95345 257.077 5.97352 257.238 6.01365C257.9 6.15411 258.06 6.47517 258.1 7.15741C258.141 7.79952 258.141 8.36136 258.141 11.4114V14.943ZM260.548 6.79622C260.548 6.5755 260.589 6.49523 260.729 6.4551C260.93 6.41497 261.11 6.41497 261.391 6.41497C263.117 6.41497 263.899 8.18077 263.899 9.52519C263.899 10.5084 263.598 11.2308 263.077 11.6522C262.736 11.9532 262.294 12.0334 261.632 12.0334C261.17 12.0334 260.87 12.0134 260.689 11.9732C260.609 11.9532 260.548 11.913 260.548 11.7525V6.79622ZM265.144 17.3509C265.144 19.4378 263.619 19.9193 262.716 19.9193C262.254 19.9193 261.793 19.8993 261.251 19.6786C260.609 19.4177 260.548 19.0766 260.548 17.7522V12.9966C260.548 12.8963 260.589 12.8561 260.669 12.8561C260.97 12.8561 261.17 12.8561 261.532 12.8762C262.314 12.9163 262.776 13.0568 263.197 13.3578C264.722 14.4213 265.144 16.1068 265.144 17.3509Z" fill="#333333"/>
<path d="M274.043 11.4114C274.043 8.36136 274.043 7.79952 274.083 7.15741C274.123 6.4551 274.284 6.11398 274.825 6.01365C275.066 5.97352 275.387 5.95345 275.608 5.95345C275.849 5.95345 275.969 5.91332 275.969 5.77286C275.969 5.6324 275.829 5.59226 275.548 5.59226C274.765 5.59226 273.3 5.65246 272.819 5.65246C272.277 5.65246 271.013 5.59226 270.07 5.59226C269.769 5.59226 269.628 5.6324 269.628 5.77286C269.628 5.91332 269.749 5.95345 269.969 5.95345C270.23 5.95345 270.471 5.97352 270.632 6.01365C271.294 6.15411 271.454 6.47517 271.494 7.15741C271.535 7.79952 271.535 8.36136 271.535 11.4114V14.943C271.535 16.7891 271.535 18.3743 271.434 19.217C271.354 19.799 271.254 20.2404 270.852 20.3207C270.672 20.3608 270.431 20.4009 270.13 20.4009C269.889 20.4009 269.809 20.4611 269.809 20.5615C269.809 20.7019 269.949 20.7621 270.21 20.7621C270.611 20.7621 271.133 20.722 271.595 20.722C272.076 20.7019 272.518 20.7019 272.738 20.7019C273.561 20.7019 274.284 20.722 275.187 20.7621C276.089 20.7822 277.133 20.8223 278.578 20.8223C279.621 20.8223 279.721 20.722 279.842 20.2805C280.002 19.6986 280.143 18.1937 280.143 17.973C280.143 17.7322 280.123 17.6318 279.982 17.6318C279.822 17.6318 279.782 17.7522 279.762 17.9328C279.721 18.3141 279.481 18.8759 279.24 19.1368C278.738 19.6786 277.956 19.6986 276.892 19.6986C275.327 19.6986 274.805 19.5582 274.464 19.2572C274.043 18.896 274.043 17.5114 274.043 14.943V11.4114Z" fill="#333333"/>
<path d="M283.283 14.943C283.283 16.8894 283.283 18.4746 283.182 19.3174C283.122 19.8993 283.002 20.2404 282.6 20.3207C282.42 20.3608 282.179 20.4009 281.878 20.4009C281.637 20.4009 281.557 20.4611 281.557 20.5615C281.557 20.7019 281.697 20.7621 281.958 20.7621C282.761 20.7621 284.025 20.7019 284.486 20.7019C285.028 20.7019 286.292 20.7621 287.617 20.7621C287.837 20.7621 287.998 20.7019 287.998 20.5615C287.998 20.4611 287.898 20.4009 287.677 20.4009C287.376 20.4009 286.935 20.3608 286.654 20.3207C286.052 20.2404 285.911 19.8792 285.851 19.3374C285.771 18.4746 285.771 16.8894 285.771 14.943V11.4114C285.771 8.36136 285.771 7.79952 285.811 7.15741C285.851 6.4551 286.011 6.11398 286.553 6.01365C286.794 5.97352 286.955 5.95345 287.155 5.95345C287.356 5.95345 287.476 5.91332 287.476 5.75279C287.476 5.6324 287.316 5.59226 287.055 5.59226C286.292 5.59226 285.109 5.65246 284.607 5.65246C284.025 5.65246 282.761 5.59226 281.998 5.59226C281.677 5.59226 281.517 5.6324 281.517 5.75279C281.517 5.91332 281.637 5.95345 281.838 5.95345C282.079 5.95345 282.339 5.97352 282.56 6.03372C283.002 6.13405 283.202 6.47517 283.242 7.15741C283.283 7.79952 283.283 8.36136 283.283 11.4114V14.943Z" fill="#333333"/>
<path d="M298.942 21.043C300.226 21.043 301.751 20.9026 302.554 20.5815C302.895 20.4411 302.975 20.3407 303.075 19.9996C303.276 19.3174 303.517 17.5716 303.517 17.3308C303.517 17.1703 303.477 17.0299 303.336 17.0299C303.176 17.0299 303.135 17.1101 303.075 17.4312C302.995 17.7924 302.734 18.3743 302.393 18.7555C301.59 19.6786 300.507 19.8792 298.721 19.8792C296.032 19.8792 292.4 17.5114 292.4 12.7357C292.4 10.7893 292.781 8.88308 294.246 7.53866C295.129 6.73602 296.273 6.29457 298.019 6.29457C299.865 6.29457 301.43 6.83635 302.092 7.53866C302.594 8.06038 302.854 8.76268 302.875 9.38473C302.875 9.66565 302.915 9.82618 303.075 9.82618C303.256 9.82618 303.296 9.66565 303.316 9.36466C303.356 8.96334 303.336 7.85972 303.376 7.19754C303.416 6.49523 303.477 6.25444 303.477 6.09391C303.477 5.97352 303.396 5.87319 303.176 5.85312C302.574 5.79292 301.931 5.61233 301.169 5.512C300.246 5.39161 299.503 5.31134 298.259 5.31134C295.27 5.31134 293.363 6.11398 291.919 7.43833C289.992 9.20413 289.571 11.5719 289.571 12.9364C289.571 14.8828 290.093 17.1302 292.059 18.8559C293.885 20.4411 296.193 21.043 298.942 21.043Z" fill="#333333"/>
<path d="M313.29 15.5249C313.391 15.5249 313.451 15.565 313.491 15.6654L315.096 19.9193C315.197 20.1601 315.056 20.3407 314.916 20.3809C314.715 20.4009 314.635 20.4411 314.635 20.5615C314.635 20.7019 314.876 20.7019 315.237 20.722C316.842 20.7621 318.307 20.7621 319.029 20.7621C319.772 20.7621 319.952 20.722 319.952 20.5615C319.952 20.421 319.852 20.4009 319.691 20.4009C319.451 20.4009 319.15 20.3809 318.849 20.3207C318.427 20.2203 317.845 19.9394 317.083 18.1335C315.799 15.0835 312.588 6.89655 312.106 5.79292C311.906 5.33141 311.785 5.15081 311.605 5.15081C311.404 5.15081 311.284 5.37154 311.043 5.95345L306.006 18.5549C305.605 19.5582 305.224 20.2404 304.301 20.3608C304.14 20.3809 303.859 20.4009 303.679 20.4009C303.518 20.4009 303.438 20.4411 303.438 20.5615C303.438 20.722 303.558 20.7621 303.819 20.7621C304.863 20.7621 305.966 20.7019 306.187 20.7019C306.809 20.7019 307.672 20.7621 308.314 20.7621C308.535 20.7621 308.655 20.722 308.655 20.5615C308.655 20.4411 308.595 20.4009 308.354 20.4009H308.053C307.431 20.4009 307.25 20.1401 307.25 19.7789C307.25 19.5381 307.351 19.0565 307.551 18.5549L308.635 15.6854C308.675 15.565 308.715 15.5249 308.816 15.5249H313.29ZM309.217 14.5216C309.137 14.5216 309.117 14.4614 309.137 14.3811L310.983 9.44493C311.003 9.36466 311.043 9.26433 311.103 9.26433C311.163 9.26433 311.183 9.36466 311.204 9.44493L313.009 14.4012C313.029 14.4614 313.009 14.5216 312.909 14.5216H309.217Z" fill="#333333"/>
</svg>
